<svg width="60" height="58" viewBox="0 0 60 58" fill="none" xmlns="http://www.w3.org/2000/svg">
<path d="M36.9581 30.2417L39.0037 30.4949L38.2238 31.4025L39.4017 31.3563L39.1846 31.8936L39.7065 31.8052L38.7667 33.5334L40.0488 32.8338L39.1878 34.5036L40.8673 33.3941L40.795 34.015L41.6113 33.5972L41.8585 34.5879L42.3491 34.0945C42.3467 34.2271 42.3501 34.3573 42.3592 34.485C42.3931 35.0085 42.4809 35.5268 42.6213 36.0322C42.8118 35.5646 43.0484 35.1153 43.3278 34.6907C43.4166 34.5539 43.5108 34.4207 43.6064 34.2963L43.8044 34.8309L44.42 34.2758L44.998 35.8146L45.7977 33.9207L46.6322 34.9336L46.7541 34.3854C46.8956 34.5869 47.0507 34.7861 47.2111 34.9889C47.7107 35.6034 48.2622 36.1765 48.8599 36.7025C48.5428 36.0168 48.2836 35.3067 48.0848 34.5794C48.064 34.4567 48.0213 34.3422 47.996 34.2202L49.0521 34.9431L48.7241 33.4476L50.8781 34.3678L49.6283 32.6948L53.5258 34.2891L50.8292 31.8467L52.1225 32.1506L51.0816 31.1592L53.5922 31.4283L51.2573 30.1014L52.4174 29.95L51.4294 29.4365L54.471 28.8718L52.3575 28.328L53.8369 27.8565L51.8154 27.3602L52.8332 26.8091L51.805 26.5819L55.1497 24.8026L51.8476 25.2626L52.6802 24.4724L51.3068 24.6328L52.5139 23.4906L50.5766 23.8773L51.3608 22.3332L50.1326 22.9921C50.1328 22.9801 50.1308 22.9683 50.1266 22.957C50.3856 22.4104 50.5894 21.8413 50.7352 21.2579C50.3215 21.6751 49.8683 22.0538 49.3815 22.3889L49.2936 22.4489L50.2138 20.4669L48.4339 21.7558C48.5349 21.2609 48.6062 20.7611 48.6473 20.2588C48.2858 20.8061 47.8824 21.3266 47.4404 21.8159L47.2947 21.9758L47.6187 19.919L46.3528 21.4861L46.1617 20.6888L45.576 21.3651L45.2355 19.5201L44.5308 21.2581L44.0469 20.551L43.7645 21.4194L43.1674 20.6504L42.9937 21.3065C42.8784 21.2043 42.757 21.0941 42.6326 20.9934C42.2513 20.6881 41.84 20.4196 41.4044 20.1915C41.5639 20.5784 41.6893 20.9779 41.7794 21.3859L40.8845 20.8431L41.2653 22.0997L40.2664 21.7143L40.497 22.4418L38.3336 21.3834L39.6779 23.2839L38.7767 23.2832L39.235 23.9766L38.4705 24.0384L38.9027 24.8264L37.4185 25.1319L38.5109 25.8486L36.77 26.2923L38.2099 26.8825L35.1931 27.9796L38.502 28.2218C38.5011 28.2293 38.5024 28.2369 38.5058 28.2437L37.122 29.0597L38.3989 29.2943L36.9581 30.2417ZM39.5545 27.6828C39.5596 27.5196 39.5571 27.3397 39.5706 27.1435C39.5937 26.9333 39.6284 26.7242 39.6746 26.5172C39.7861 26.0064 39.9838 25.5158 40.2597 25.0655C40.5811 24.5273 41.0043 24.0517 41.5069 23.6639C42.0744 23.2203 42.7303 22.8957 43.4324 22.7111C44.1798 22.5099 44.962 22.4698 45.7234 22.5936C46.5191 22.7152 47.2735 23.0116 47.9288 23.4602C48.5841 23.9087 49.123 24.4975 49.5043 25.1816C49.7007 25.5144 49.852 25.8706 49.9546 26.2415C50.0198 26.4334 50.014 26.5922 50.0755 26.7621C50.1159 26.943 50.1469 27.1259 50.1683 27.31C50.2162 28.0069 50.1139 28.7075 49.8678 29.3673C49.652 29.9518 49.3258 30.4934 48.9057 30.9641C48.5555 31.3636 48.1401 31.7051 47.6764 31.9748C47.4892 32.0856 47.2958 32.1861 47.0971 32.2758C46.9094 32.3527 46.7323 32.4098 46.5741 32.4681C46.3285 32.5432 46.0769 32.5979 45.8221 32.6315L45.5544 32.6769L45.8124 32.6016C46.0547 32.5284 46.2925 32.4415 46.5246 32.3412L46.9964 32.0945C47.1745 31.9876 47.3465 31.8711 47.5115 31.7458C47.9087 31.4535 48.2574 31.1039 48.5452 30.7095C48.882 30.2591 49.1396 29.7583 49.3073 29.2278C49.4796 28.6317 49.5329 28.0105 49.4642 27.3977C49.447 27.2414 49.4207 27.0863 49.3855 26.9331C49.3506 26.7669 49.3057 26.6028 49.2509 26.4419C49.2017 26.2981 49.1436 26.1574 49.0769 26.0205C49.0098 25.8697 48.9336 25.723 48.8484 25.5812C48.7587 25.432 48.661 25.2876 48.5557 25.1484C48.5365 25.4378 48.4422 25.7186 48.2815 25.9649C48.1209 26.2113 47.899 26.4151 47.6365 26.5575C47.7352 26.6547 47.8082 26.7734 47.8497 26.904C47.8911 27.0345 47.8997 27.1731 47.8748 27.3083C47.8498 27.4434 47.7921 27.5712 47.7063 27.6811C47.6205 27.7911 47.5091 27.88 47.3814 27.9405C47.2537 28.001 47.1132 28.0314 46.9717 28.0292C46.8302 28.0269 46.6916 27.9921 46.5675 27.9276C46.4433 27.8631 46.3372 27.7707 46.2578 27.6582C46.1784 27.5456 46.1281 27.4161 46.111 27.2803C46.0763 27.0724 46.1233 26.8586 46.2429 26.6808C45.8959 26.5768 45.5915 26.3717 45.3713 26.0931C45.151 25.8146 45.0255 25.4762 45.0117 25.124C44.9979 24.7717 45.0966 24.4227 45.2943 24.1242C45.4921 23.8258 45.7792 23.5924 46.1168 23.4558C45.9443 23.4037 45.7688 23.3612 45.5911 23.3284C44.9476 23.2151 44.2857 23.2279 43.6444 23.3659C43.0031 23.5039 42.3954 23.7645 41.857 24.1322C41.3915 24.4584 40.9856 24.8579 40.6566 25.3139C40.3665 25.7051 40.1388 26.1358 39.9813 26.5915C39.9123 26.7822 39.8563 26.9769 39.8139 27.1745C39.7755 27.3613 39.7531 27.5319 39.7277 27.685C39.7035 27.9294 39.6952 28.1747 39.7027 28.4197L39.714 28.6793C39.714 28.6793 39.6991 28.5916 39.6702 28.4207C39.6082 28.179 39.568 27.9324 39.55 27.6836L39.5545 27.6828Z" fill="white" fill-opacity="0.2"/>
<path d="M5.32848 41.5411L4.67298 41.5575L5.32369 41.6231C5.49353 41.6521 5.66513 41.6713 5.83758 41.6804C6.66826 41.7322 7.50227 41.7296 8.33388 41.6724C9.1741 41.5872 10.0089 41.4534 10.8337 41.2716C11.7654 41.0629 12.6847 40.8033 13.5871 40.4941C13.9088 40.381 14.2199 40.2607 14.5173 40.1427C14.5988 40.2101 14.7164 40.2983 14.8665 40.4127C14.4572 40.7526 13.9858 41.139 13.5536 41.5368C12.8747 42.1886 12.2473 42.8887 11.6768 43.6312C11.2145 44.237 10.9448 44.6569 10.9448 44.6569C10.9448 44.6569 11.3096 44.302 11.8969 43.8283C12.6046 43.2525 13.3578 42.7315 14.1493 42.2701C14.4069 42.1182 14.6674 41.9749 14.9309 41.8401C14.8376 41.9235 14.7398 42.0077 14.6519 42.0948C13.8891 42.8558 13.2614 43.7332 12.7946 44.6908C12.701 44.8825 12.6234 45.0579 12.5624 45.2216C12.5014 45.3852 12.445 45.521 12.4091 45.6398L12.2893 46.0073L12.4846 45.6721C12.5409 45.5634 12.6275 45.4405 12.7202 45.2986C12.8248 45.1404 12.9375 44.9874 13.058 44.8401C13.6761 44.0488 14.4263 43.3623 15.2771 42.8095C15.721 42.523 16.1871 42.2707 16.6712 42.0549C16.8196 41.9937 16.9634 41.9332 17.1087 41.8816L17.2076 41.9415C16.7565 42.2801 16.3342 42.6532 15.9446 43.0571C15.33 43.6989 14.803 44.414 14.3769 45.1848C14.2051 45.4934 14.0825 45.7622 14.0018 45.9472L13.8792 46.243L14.0735 45.9846C14.201 45.8278 14.3816 45.5988 14.6243 45.3503C15.7415 44.1723 17.146 43.2845 18.7064 42.7697L18.7834 42.8108L18.3189 43.1555C17.8116 43.5687 17.3334 44.0142 16.8874 44.4891C16.085 45.3745 15.4227 46.3697 14.9225 47.4415C14.819 47.6574 14.7314 47.8571 14.6643 48.0398C14.5972 48.2225 14.5295 48.3737 14.4935 48.5196L14.3622 48.9296L14.5683 48.5475C14.6321 48.4285 14.7248 48.2865 14.8281 48.1248C14.9314 47.963 15.0461 47.7857 15.2077 47.6096C15.8751 46.6949 16.6822 45.883 17.6011 45.2023C18.0822 44.8479 18.5876 44.5258 19.1138 44.2382C19.5498 44.0112 19.9987 43.8087 20.4584 43.6318L20.7264 43.7532C20.5807 43.9132 20.4365 44.0819 20.3014 44.2761C19.9591 44.7271 19.6719 45.2145 19.4456 45.7286C19.346 45.9559 19.2607 46.1886 19.1902 46.4256C19.347 46.2364 19.5162 46.0571 19.6968 45.8889C20.0732 45.5345 20.4905 45.2232 20.9403 44.9614C21.3375 44.7338 21.7583 44.5476 22.1955 44.4062L22.2657 44.4349C22.1549 44.5799 22.0493 44.7285 21.9498 44.8851C21.6633 45.313 21.418 45.7651 21.2168 46.2357C21.0576 46.6188 20.9805 46.8799 20.9805 46.8799C20.9805 46.8799 21.1648 46.6728 21.4681 46.396C21.8314 46.066 22.2248 45.7685 22.6434 45.5071C22.9191 45.3365 23.2046 45.1813 23.4983 45.0422C23.1904 45.4356 22.911 45.849 22.6621 46.2795C22.2072 47.0793 21.8807 47.9405 21.6941 48.8331C21.6313 49.1204 21.587 49.411 21.5613 49.7032L21.5331 50.0326L21.6429 49.7165C21.7359 49.4461 21.8471 49.1818 21.9758 48.9252C22.3561 48.1566 22.8547 47.4473 23.4542 46.8216C23.9608 46.2949 24.5332 45.8314 25.158 45.4419L25.8022 45.6349C25.7529 45.7019 25.6983 45.7653 25.6542 45.8358C25.1831 46.5301 24.853 47.3039 24.6817 48.1152C24.6492 48.2678 24.627 48.4221 24.6152 48.5773C24.6005 48.7106 24.5865 48.8211 24.5839 48.9163L24.5732 49.2112L24.6663 48.9339C24.7 48.8266 24.7415 48.7216 24.7905 48.6198C24.8419 48.4847 24.904 48.3536 24.9762 48.2276C25.3293 47.5573 25.8107 46.9569 26.3946 46.4589C26.5944 46.2914 26.8053 46.1367 27.0258 45.9958C27.4314 46.1029 27.8507 46.2078 28.2783 46.3067C28.1115 46.6619 27.9707 47.0278 27.8568 47.4016C27.6189 48.2003 27.515 49.0293 27.549 49.8569C27.5578 50.123 27.5855 50.388 27.632 50.6499L27.6817 50.9436C27.6817 50.9436 27.6957 50.833 27.7152 50.6449C27.7434 50.3882 27.7892 50.1334 27.8521 49.8822C28.1437 48.6533 28.7729 47.52 29.6729 46.6025L30.1164 46.6852C30.0357 46.8702 29.961 47.0632 29.8999 47.2539C29.6555 47.9948 29.5341 48.7672 29.5405 49.5422C29.538 49.7899 29.5549 50.0372 29.5911 50.2821C29.6208 50.4574 29.6379 50.5582 29.6379 50.5582L29.6841 50.2798C29.7209 50.0416 29.7763 49.8061 29.8496 49.5755C30.0532 48.8905 30.3687 48.2404 30.784 47.6498C30.9707 47.3851 31.178 47.1344 31.404 46.9C31.9216 46.9792 32.4475 47.0524 32.9856 47.1146C32.9531 47.3365 32.9237 47.576 32.9094 47.7948C32.8602 48.5005 32.9017 49.2083 33.0328 49.9021C33.0873 50.2096 33.1621 50.5132 33.2568 50.811C33.2646 50.505 33.2908 50.1994 33.3352 49.8959C33.4304 49.2478 33.6065 48.6123 33.8597 48.0036C33.9602 47.7505 34.074 47.5025 34.2007 47.2605C34.7744 47.3121 35.3556 47.3535 35.9482 47.3793C35.8861 47.6691 35.8391 47.9614 35.8071 48.2554C35.7353 48.9606 35.7552 49.6707 35.8663 50.369C35.9132 50.6773 35.9805 50.9822 36.0676 51.2818C36.0799 50.9739 36.1137 50.6669 36.1687 50.3629C36.3434 49.3174 36.7415 48.3162 37.3376 47.4236L38.2213 47.4317C38.2418 47.6324 38.2756 47.8315 38.3223 48.0278C38.3579 48.2029 38.4043 48.3758 38.4613 48.5453C38.5655 48.1547 38.7214 47.7782 38.9252 47.4252C39.5534 47.4135 40.1847 47.3923 40.8327 47.3592C40.8292 47.7787 40.855 48.1976 40.9097 48.6131C41.0125 49.3425 41.207 50.056 41.489 50.7378C41.5793 50.9586 41.6813 51.1745 41.7946 51.3849L41.9232 51.6202C41.8574 51.3065 41.8114 50.9891 41.7855 50.6696C41.7337 49.9825 41.7735 49.2908 41.9038 48.6116C41.9883 48.1503 42.1129 47.6963 42.2762 47.2545C42.6997 47.2188 43.1269 47.178 43.5625 47.1313L44.4057 50.2078L44.821 46.9813C45.3474 46.8921 45.8874 46.8277 46.4229 46.737C46.6681 47.065 46.8942 47.406 47.1001 47.7585C47.571 48.5547 47.9574 49.3956 48.2535 50.2685C48.2535 50.2685 48.2644 49.9195 48.2412 49.3688C48.2119 48.7141 48.1359 48.0626 48.0137 47.419C47.9595 47.099 47.8826 46.7829 47.8041 46.4851L48.5348 46.3613C48.6758 46.4772 48.8176 46.5975 48.9585 46.7404C49.3507 47.0869 49.6913 47.4844 49.9709 47.9216C50.0534 48.069 50.1133 48.2274 50.1486 48.392C50.165 48.4567 50.1762 48.5227 50.182 48.5892C50.2082 48.5254 50.2299 48.46 50.2468 48.3934C50.2857 48.209 50.2962 48.0203 50.2781 47.8335C50.1881 47.2738 50.022 46.7289 49.7842 46.2128L49.7428 46.1342L50.6423 45.9322C51.0019 46.202 51.3417 46.4954 51.6594 46.8105C52.162 47.3444 52.6051 47.9282 52.9815 48.5525C53.1556 48.8435 53.3139 49.1433 53.4557 49.4505C53.4185 49.11 53.3613 48.7719 53.2843 48.4381C53.1007 47.6899 52.8338 46.9641 52.4881 46.2734C52.3604 46.0155 52.216 45.7694 52.0724 45.5277L53.0741 45.2679C53.8064 45.8019 54.3672 46.5254 54.693 47.3563C54.7701 47.5483 54.8317 47.7459 54.8771 47.9474C54.9024 48.0964 54.9165 48.1797 54.9165 48.1797L54.946 47.9402C54.9741 47.7275 54.9847 47.5131 54.9774 47.2991C54.9554 46.6229 54.8063 45.9575 54.5375 45.3357C54.476 45.1928 54.4061 45.0558 54.3362 44.9189L55.2578 44.6546C55.319 44.6848 55.3847 44.7142 55.4571 44.7561C55.887 44.9781 56.2861 45.2513 56.6452 45.5693C57.023 45.9008 57.3551 46.2778 57.6336 46.6915C57.7676 46.8843 57.8889 47.0851 57.9969 47.2927C57.9864 47.0537 57.9602 46.8156 57.9182 46.5801C57.8266 46.0454 57.6678 45.5241 57.4453 45.028C57.3069 44.718 57.1454 44.4184 56.9619 44.1315L57.7058 43.8928C57.9626 44.0914 58.2 44.3123 58.4152 44.5527C58.7716 44.9492 59.0696 45.3918 59.3009 45.868C59.4093 46.0939 59.5017 46.3268 59.5776 46.5651C59.5995 46.3106 59.6046 46.0553 59.5929 45.8005C59.5684 45.2169 59.4597 44.6405 59.2701 44.0878C59.1943 43.8743 59.1074 43.6648 59.0097 43.46L60.2971 43.0121C60.6829 43.2606 61.0434 43.5437 61.374 43.8577C61.6521 44.1217 61.8209 44.3186 61.8209 44.3186C61.7694 44.1095 61.7065 43.9035 61.6323 43.7012C61.5087 43.3521 61.3576 43.0129 61.1803 42.6866L62.3262 42.2581C62.8516 42.437 63.3585 42.662 63.8406 42.9304C63.6498 42.5811 63.4368 42.2438 63.2027 41.9203C63.7326 41.7133 64.2571 41.5027 64.7718 41.2893C64.9419 41.3786 65.1033 41.4826 65.2539 41.5999C65.4067 41.7151 65.5499 41.8416 65.6822 41.9783C65.6371 41.7888 65.5776 41.603 65.504 41.4223C65.4575 41.313 65.3943 41.1884 65.3259 41.0602C72.3981 38.1161 79.1723 34.5306 85.557 30.3521L87.3904 29.1037L85.3054 28.3702C83.3179 27.6608 82.938 27.5403 76.7259 22.7264C75.1917 21.5345 73.5889 20.4271 71.9251 19.4094C72.1794 19.1979 72.4083 18.9594 72.6077 18.6987C72.7166 18.5569 72.8146 18.4077 72.9009 18.2522C72.7467 18.3339 72.5874 18.406 72.424 18.4683C72.0797 18.5954 71.7195 18.6762 71.3535 18.7082C71.1435 18.7258 70.9325 18.7253 70.723 18.7067C70.4544 18.5539 70.2039 18.3979 69.914 18.2576C70.1373 18.0349 70.3353 17.7898 70.5045 17.5264C70.788 17.0845 70.9762 16.5924 71.0578 16.08C71.0825 15.9197 71.0941 15.758 71.0926 15.5962C71.0733 15.4822 71.0629 15.4209 71.0629 15.4209L70.9875 15.5824C70.9196 15.7215 70.8408 15.8554 70.7519 15.983C70.4948 16.3487 70.1628 16.6598 69.7769 16.8966C69.4235 17.1142 69.0291 17.2608 68.6174 17.3275C68.4929 17.3503 68.3665 17.3612 68.24 17.3598L68.1447 17.376L67.7899 17.2106C68.0386 16.9261 68.2538 16.6159 68.4316 16.2858C68.7232 15.7666 68.9061 15.1977 68.9698 14.6121C68.9872 14.4285 68.9903 14.2441 68.9791 14.0605L68.9449 13.8588L68.8793 14.0503C68.8206 14.2188 68.7467 14.3822 68.6586 14.5386C68.4188 14.9738 68.0932 15.36 67.7003 15.6749C67.3074 15.9898 66.855 16.2273 66.369 16.3737C66.2732 16.3956 66.1762 16.412 66.0786 16.4229L66.0287 16.4042C66.215 16.1379 66.3799 15.8582 66.522 15.5677C66.7798 15.0427 66.9512 14.4827 67.0299 13.9081C67.0671 13.6576 67.0821 13.4046 67.0745 13.1521C66.9752 13.3836 66.857 13.6071 66.7209 13.8207C66.2051 14.6801 65.4388 15.3748 64.5193 15.8167L63.7929 15.552C64.1436 15.1527 64.4602 14.7266 64.7396 14.278C65.1352 13.6388 65.4429 12.9531 65.6546 12.2383C65.7372 11.9538 65.7893 11.7105 65.8216 11.5427C65.8539 11.375 65.8701 11.2775 65.8701 11.2775L65.743 11.52C65.6609 11.6692 65.5424 11.8786 65.3783 12.1228C64.6062 13.2641 63.5454 14.1969 62.2983 14.8312L62.0181 14.9688L61.4532 14.803L61.5944 14.6168C61.9514 14.0997 62.2162 13.5289 62.3775 12.9286C62.4272 12.7368 62.4644 12.5422 62.489 12.3461L62.5131 12.1301L62.4059 12.3241C62.319 12.4989 62.2179 12.6668 62.1034 12.8262C61.7731 13.2772 61.3661 13.6709 60.9 13.9904C60.6298 14.169 60.3433 14.3231 60.0443 14.451C59.5866 14.3391 59.1257 14.2368 58.6664 14.1433C58.7485 13.9941 58.8337 13.8354 58.9098 13.6782C59.1678 13.1667 59.3904 12.6395 59.5762 12.1C59.7174 11.6658 59.7893 11.3741 59.7893 11.3741C59.3013 12.0061 58.7516 12.5914 58.1479 13.1219C57.8451 13.3868 57.527 13.6349 57.1953 13.8649C56.7881 13.8031 56.3808 13.7413 55.9712 13.6935C56.1174 13.208 56.2271 12.7132 56.2994 12.2131C56.389 11.5543 56.4093 10.8892 56.36 10.228C56.3117 9.69511 56.2433 9.346 56.2433 9.346C56.2433 9.346 56.19 9.69318 56.0562 10.1983C55.8896 10.8008 55.6585 11.3855 55.3666 11.9428C55.0843 12.4827 54.7452 12.9934 54.3548 13.4668L54.3161 13.5139L53.5792 13.4629C53.5937 13.1628 53.5962 12.8468 53.5798 12.5294C53.5574 11.9218 53.4862 11.3173 53.367 10.7214C53.2853 10.2392 53.1774 9.93287 53.1774 9.93287C53.1774 9.93287 53.1484 10.2579 53.0608 10.7327C52.9589 11.3027 52.8105 11.8646 52.6171 12.4129C52.4976 12.743 52.3609 13.0672 52.2073 13.3841C51.7712 13.3723 51.3274 13.3708 50.8889 13.3729C50.0102 12.4663 49.3175 11.4059 48.8469 10.247C48.6331 9.72862 48.5291 9.36297 48.5291 9.36297C48.5291 9.36297 48.5136 9.73984 48.5503 10.3152C48.5981 11.0254 48.7172 11.7285 48.9059 12.4147C49.0024 12.7636 49.1207 13.1043 49.246 13.4302L48.9957 13.4411C47.9538 12.456 47.1274 11.2778 46.5647 9.97522C46.4171 9.64054 46.289 9.29797 46.1808 8.94911C46.1908 9.31827 46.2205 9.68647 46.2696 10.0523C46.3803 10.8767 46.5846 11.6858 46.879 12.465C47.0212 12.8443 47.1854 13.2154 47.3707 13.5765L47.1528 13.6134L46.7613 13.3416C45.295 12.2893 44.1043 10.9199 43.2826 9.34075C43.1098 9.00932 42.9867 8.72357 42.8982 8.5041L42.7691 8.18329C42.7691 8.18329 42.7899 8.30602 42.8263 8.52079C42.8627 8.73556 42.9161 9.05114 42.9792 9.4237C43.2011 10.3374 43.5296 11.2225 43.9583 12.0624C44.2864 12.6937 44.6681 13.2971 45.0995 13.8665L44.9679 13.8888L44.8985 13.8374C44.0798 13.2248 43.335 12.5253 42.6779 11.7517C42.0079 10.9628 41.4317 10.1031 40.96 9.18856C40.7608 8.81199 40.6167 8.48471 40.5214 8.25287L40.3713 7.89053L40.4374 8.28062C40.4789 8.52608 40.5391 8.8811 40.6701 9.29627C40.9505 10.3218 41.3469 11.3131 41.8523 12.2522C42.2228 12.9368 42.6461 13.5931 43.1185 14.2155C42.9415 14.2455 42.7645 14.2755 42.5965 14.331L42.2021 14.0145C41.8296 13.7016 41.4755 13.3687 41.1416 13.0173C40.76 12.6039 40.4042 12.1689 40.0759 11.7144C39.456 10.8419 38.9551 9.89484 38.5855 8.89634C38.5083 8.68849 38.4432 8.49663 38.3953 8.32438C38.3475 8.15213 38.2942 8.00333 38.2666 7.8953L38.1628 7.50258C38.1628 7.50258 38.1873 7.64722 38.1849 7.90913C38.1881 8.03785 38.1992 8.18626 38.2183 8.35436C38.2374 8.52245 38.2625 8.72561 38.2935 8.96384C38.4596 10.0666 38.7705 11.1427 39.2187 12.1662C39.4662 12.7214 39.7493 13.2607 40.0664 13.7811C40.3012 14.1471 40.5322 14.4912 40.761 14.7951C40.4639 14.8785 40.1673 14.9648 39.8712 15.0541C39.6092 14.9099 39.3585 14.7474 39.1213 14.5679C38.6725 14.2336 38.2027 13.8578 37.7458 13.4482C36.9055 12.7315 36.1154 11.9616 35.3807 11.1435C34.7712 10.4667 34.4038 9.9788 34.4038 9.9788C34.4038 9.9788 34.669 10.5245 35.1292 11.3123C35.6989 12.2826 36.3326 13.2159 37.0263 14.1066C37.4081 14.5965 37.8103 15.0694 38.1975 15.5088L38.2819 15.5937L37.5834 15.8518C37.1058 15.6383 36.6457 15.3907 36.2067 15.1111C35.5038 14.6641 34.8573 14.1397 34.2801 13.5482C34.0374 13.3007 33.8514 13.0843 33.7089 12.9325L33.5086 12.6869C33.5086 12.6869 33.5589 12.7911 33.6362 12.9719C33.7136 13.1527 33.8473 13.4186 34.0202 13.723C34.4446 14.4791 34.9573 15.1849 35.5483 15.8268C35.7427 16.0373 35.95 16.2412 36.1603 16.4355L35.9037 16.5466C34.9846 15.9681 34.0992 15.3414 33.2515 14.6693C32.3578 13.9569 31.5046 13.1983 30.6957 12.3968C30.0333 11.738 29.6144 11.2769 29.6144 11.2769C29.6144 11.2769 29.9333 11.809 30.4608 12.5809C31.1073 13.5305 31.8076 14.4445 32.5585 15.3187C33.1444 16.022 33.7895 16.6883 34.3683 17.2666L33.8746 17.5215C33.4198 17.4001 32.8927 17.2369 32.3936 17.0464C31.8944 16.8559 31.1787 16.5713 30.5695 16.2822C29.4431 15.7431 28.3742 15.0998 27.3776 14.361C26.962 14.0572 26.6355 13.7833 26.4071 13.5921L26.0512 13.2826C26.0512 13.2826 26.1619 13.4127 26.3464 13.6474C26.5309 13.8822 26.8142 14.204 27.1713 14.5763C28.0465 15.5016 29.0127 16.342 30.0567 17.086C30.63 17.4939 31.2306 17.8701 31.8101 18.2048L32.232 18.4354L31.7828 18.7054C31.4972 18.6726 31.1911 18.6298 30.8791 18.5789C30.2343 18.4597 29.5997 18.296 28.9801 18.0889C27.7994 17.6908 26.6915 17.118 25.6953 16.3909C25.5076 16.2581 25.3276 16.1155 25.1561 15.9637C24.9932 15.8289 24.8522 15.713 24.7459 15.6093L24.406 15.2836L24.6845 15.6603C24.7711 15.7854 24.8878 15.9234 25.0272 16.0847C25.1743 16.2678 25.3317 16.4428 25.4988 16.609C26.3932 17.5382 27.4322 18.3265 28.579 18.9459C29.1122 19.2354 29.6652 19.4897 30.2345 19.7071L29.7201 20.0602L29.1131 19.7843C28.6375 19.5672 28.0941 19.2805 27.5304 18.9567C26.9667 18.6328 26.3835 18.2492 25.8133 17.8317C24.7692 17.0662 23.8066 16.2023 22.9395 15.2525C22.5748 14.8633 22.2969 14.5181 22.1064 14.2754L21.8007 13.8762C21.8007 13.8762 21.8879 14.0328 22.0292 14.2884C22.1706 14.544 22.3938 14.9526 22.6842 15.3994C23.396 16.5127 24.2227 17.5524 25.152 18.5028C25.6606 19.0254 26.2019 19.5198 26.7304 19.9669C27.259 20.4139 27.7764 20.7952 28.2358 21.1096L28.0539 21.2487L27.8855 21.1915C27.2021 20.9601 26.4282 20.6358 25.6046 20.2658C24.781 19.8958 23.9341 19.444 23.1041 18.9534C21.5728 18.0456 20.1424 16.9886 18.835 15.7988C18.5651 15.5559 18.3209 15.3268 18.1174 15.1178C17.914 14.9087 17.7255 14.7333 17.5589 14.5766L17.1023 14.0858L17.4923 14.624C17.6157 14.8015 17.7753 15.0269 17.9553 15.2354C18.1353 15.4439 18.3469 15.7282 18.5939 16.029C19.7585 17.3971 21.0649 18.6457 22.493 19.7557C23.2819 20.3616 24.0913 20.9233 24.904 21.4214C25.5046 21.7706 26.0872 22.1228 26.6246 22.4015L26.3471 22.6379L26.1084 22.5791C25.2951 22.3701 24.494 22.1205 23.7082 21.8314C22.8035 21.4917 21.9184 21.1058 21.0568 20.6753C19.4333 19.8506 17.9138 18.8494 16.5271 17.6911C16.2391 17.4513 15.982 17.2288 15.7642 17.0178C15.5464 16.8067 15.345 16.6379 15.2057 16.4766L14.7271 15.994L15.145 16.532C15.2768 16.7035 15.4463 16.9048 15.6444 17.1372C15.8425 17.3697 16.0677 17.6246 16.3239 17.8969C17.5897 19.2449 19.0119 20.4472 20.5629 21.4803C21.3979 22.0322 22.2631 22.5404 23.155 23.0027C23.8101 23.3426 24.4299 23.6118 25.0075 23.8522L24.8506 24.0005C24.4492 23.9738 24.0064 23.9226 23.528 23.8548C22.9482 23.757 22.3747 23.6283 21.8101 23.4694C20.7348 23.1623 19.7027 22.7317 18.7357 22.1866C18.3342 21.966 18.0136 21.7543 17.7918 21.6025L17.4433 21.3639L17.7372 21.6658C17.9963 21.9341 18.2701 22.1888 18.5573 22.4287C19.4341 23.1756 20.4002 23.8187 21.4355 24.3444C21.6551 24.456 21.8823 24.5573 22.1043 24.655C21.623 24.5697 21.1365 24.4537 20.6478 24.3245C19.7175 24.0665 18.8052 23.7526 17.9163 23.3849C17.0341 23.0017 16.1798 22.562 15.3591 22.0686C14.6331 21.6297 13.9381 21.1449 13.2786 20.6174L12.8624 20.2821L12.5005 19.9647C12.2751 19.7639 12.0768 19.5856 11.9435 19.4323L11.4558 18.9513L12.0248 19.5267C12.1573 19.7027 12.3306 19.8988 12.5325 20.1261L12.8557 20.4907C12.974 20.6104 13.0991 20.7425 13.234 20.8775C13.8345 21.4912 14.4776 22.0647 15.1587 22.594C15.9497 23.2016 16.7816 23.7581 17.649 24.2598C18.5301 24.7526 19.4419 25.1929 20.3793 25.5784C21.1494 25.88 21.9356 26.1426 22.7348 26.3653L22.558 26.562L22.3667 26.5629C21.5318 26.5602 20.6983 26.5086 19.8709 26.4084C18.9157 26.2812 17.9712 26.0917 17.0438 25.8412C16.1121 25.5829 15.2011 25.2611 14.3177 24.8781C13.5403 24.5379 12.789 24.1454 12.0693 23.7034L11.6158 23.424L11.219 23.1485C10.9708 22.9786 10.7497 22.8312 10.5861 22.6921L10.0477 22.2693L10.5308 22.7511C10.6837 22.91 10.8813 23.084 11.1112 23.284C11.222 23.387 11.3426 23.4928 11.4738 23.6058C11.605 23.7189 11.7491 23.8252 11.8946 23.9404C12.5624 24.4698 13.2682 24.9529 14.0069 25.3861C14.8695 25.8973 15.7695 26.3476 16.7001 26.7335C17.2022 26.9416 17.7376 27.1259 18.2602 27.2899C17.4985 27.1754 16.7075 27.0254 15.9226 26.8291C14.9726 26.5908 14.039 26.2972 13.1267 25.95C12.3255 25.6378 11.5457 25.2775 10.7918 24.8711L10.3148 24.6182L9.89447 24.3693C9.62961 24.2113 9.37828 24.078 9.21615 23.9476L8.63825 23.5676L9.18041 24.0123C9.34477 24.1558 9.55971 24.3223 9.80105 24.5068L10.1925 24.8058L10.6421 25.1174C11.3546 25.618 12.0993 26.0746 12.8718 26.4847C13.7632 26.9566 14.6839 27.3759 15.6287 27.7401C16.5849 28.0965 17.562 28.3992 18.5553 28.6467C19.1189 28.7767 19.6606 28.8878 20.1714 28.9817C19.6179 29.0213 19.0009 29.0446 18.3492 29.0558C17.4672 29.051 16.5865 29.003 15.7105 28.9121C14.0574 28.7316 12.4318 28.3764 10.8626 27.8529C10.5371 27.7503 10.2434 27.6422 9.9851 27.5507C9.72684 27.4592 9.48747 27.3689 9.31461 27.2855L8.74082 27.04L9.26221 27.362C9.4335 27.4638 9.64935 27.5805 9.89466 27.7058C10.14 27.8311 10.4094 27.9883 10.7279 28.1328C12.2575 28.8698 13.8667 29.4438 15.5277 29.8448C16.1887 29.9989 16.8536 30.1207 17.5109 30.2258C16.6496 30.3221 15.7315 30.4145 14.8174 30.4475C13.1848 30.5388 11.5513 30.3579 9.98833 29.9128C9.46805 29.7571 8.96471 29.554 8.48505 29.3062C8.30765 29.2235 8.18091 29.1368 8.08808 29.0848L7.94848 29.0048L8.07744 29.1047C8.15813 29.1677 8.27728 29.2647 8.44098 29.3768C8.88654 29.69 9.36234 29.9612 9.86198 30.1866C11.4092 30.8552 13.0664 31.2607 14.7616 31.3858C15.9708 31.4966 17.1788 31.5175 18.2447 31.5263C17.8543 31.6465 17.4351 31.7626 16.9872 31.8746C15.3909 32.2419 13.7462 32.3544 12.1184 32.2077C11.3989 32.1423 10.6862 32.0249 9.98605 31.8564L9.54337 31.7511L9.14987 31.6328C8.90365 31.5573 8.68689 31.4903 8.51172 31.4208L7.96351 31.2161L8.47747 31.4942C8.6382 31.5887 8.8458 31.6843 9.0836 31.7929L9.45878 31.9683L9.88916 32.1389C10.579 32.4068 11.2885 32.6256 12.0122 32.7938C12.853 32.9811 13.7077 33.1077 14.5693 33.1723C15.2192 33.2131 15.8715 33.217 16.5227 33.1841C15.9973 33.4174 15.447 33.6413 14.8734 33.8377C14.1893 34.0627 13.4935 34.2513 12.7889 34.4026C12.1661 34.5304 11.5372 34.6264 10.9048 34.6902C10.628 34.7371 10.371 34.7355 10.1441 34.7469C9.91729 34.7582 9.71463 34.7745 9.5506 34.7707L9.00476 34.773L9.51635 34.8442C9.67956 34.8706 9.87907 34.8909 10.1066 34.911C10.3341 34.9311 10.5819 34.9613 10.8782 34.9742C11.5281 35.0103 12.18 35.0128 12.8309 34.9817C13.582 34.9435 14.3307 34.8633 15.0732 34.7417C14.8128 34.8309 14.5525 34.92 14.2861 35.0012C12.8726 35.4388 11.4229 35.7538 9.95442 35.9423C9.35537 36.0437 8.84122 36.0677 8.48509 36.0874L7.9263 36.1234L8.48483 36.1686C8.84005 36.1986 9.35403 36.2288 9.96711 36.2377C11.4841 36.2631 13.002 36.1569 14.5025 35.9205L14.793 35.8713L14.5916 35.9504C13.4907 36.3406 12.3499 36.6124 11.1902 36.761C10.8044 36.8156 10.4162 36.8512 10.0271 36.8678L9.5644 36.8921L10.0042 36.9528C10.2861 36.9908 10.6904 37.035 11.1802 37.0603C11.8523 37.0953 12.5264 37.0895 13.1987 37.043C12.8724 37.184 12.5402 37.3169 12.2033 37.4506C11.0455 37.8975 9.86398 38.2827 8.66397 38.6046C7.67205 38.8673 6.99956 39.0037 6.99956 39.0037C6.99956 39.0037 7.68228 38.9828 8.71297 38.8939C9.9778 38.7796 11.2358 38.5967 12.481 38.3459L12.6625 38.3151L12.1554 38.5183C10.8422 39.0295 9.48728 39.431 8.10561 39.7182C7.53295 39.8377 7.05272 39.8965 6.71688 39.9534L6.19044 40.0425L6.72414 40.0513C7.06508 40.0522 7.55423 40.046 8.11904 40.018C9.56501 39.9401 11.0028 39.7418 12.4164 39.4254C12.7205 39.3739 13.0179 39.283 13.3122 39.2016L13.085 39.3212C12.2727 39.7193 11.4376 40.0715 10.584 40.376C9.05436 40.959 7.45389 41.3438 5.82447 41.5203C5.65952 41.5353 5.49397 41.5423 5.32848 41.5411ZM56.3455 40.3538L56.9747 39.7964C58.1516 38.6921 59.1629 37.4339 59.9785 36.0593C60.3574 35.4311 60.6948 34.7806 60.9886 34.1118C61.1453 33.7967 61.2371 33.4565 61.362 33.1468C61.487 32.8371 61.5961 32.5165 61.6674 32.1933C61.7387 31.8701 61.8182 31.5681 61.8865 31.2544C61.9675 30.9637 62.0298 30.6685 62.073 30.3707C62.1375 29.7871 62.236 29.2384 62.2603 28.7203C62.2846 28.2022 62.2861 27.715 62.286 27.2731C62.2858 26.8313 62.21 26.4113 62.1757 26.0429L62.1206 25.5247C62.0938 25.3669 62.0686 25.2178 62.0463 25.0864C61.9996 24.8102 61.9368 24.5774 61.8951 24.3861L61.7706 23.8165C61.7706 23.8165 61.773 24.0235 61.7733 24.4112C61.7742 24.6094 61.7794 24.861 61.7831 25.1309C61.8061 25.2668 61.7905 25.4228 61.7847 25.5815C61.7789 25.7403 61.7565 25.911 61.7446 26.0888C61.7125 26.4505 61.6901 26.842 61.6449 27.2645C61.5998 27.6869 61.4955 28.1464 61.4101 28.6343C61.3246 29.1222 61.1522 29.6203 61.0137 30.1533C60.9106 30.5089 60.7711 30.8707 60.6286 31.242C61.794 27.157 61.2591 22.8107 59.1392 19.1401C60.1211 19.4247 61.2252 19.7968 62.3223 20.2107C63.7191 20.7524 65.086 21.3621 66.4179 22.0375C67.5192 22.5859 68.2323 22.9926 68.2323 22.9926C68.2323 22.9926 67.5867 22.4888 66.5812 21.7889C65.5756 21.089 64.1874 20.1969 62.7392 19.3916C62.2652 19.1292 61.7837 18.8771 61.3135 18.6366C62.1141 18.8708 62.8799 19.1198 63.6078 19.3933C65.0131 19.8902 66.2739 20.4432 67.3912 20.9483L68.9205 21.7083L70.2217 22.3897C70.9907 22.8231 71.6194 23.1449 72.0306 23.3954L72.6676 23.7384L72.1514 23.2261C71.81 22.8917 71.3042 22.4138 70.6256 21.8253L69.481 20.8829C69.1235 20.5918 68.72 20.3039 68.2946 19.9973C70.7355 21.3064 73.0532 22.8176 75.222 24.5141C79.4295 27.7738 81.0911 28.9848 82.4173 29.6755C80.9145 30.6153 78.5158 32.0541 75.486 33.6809L75.9042 33.3937C76.9859 32.6965 77.8967 32.0372 78.6407 31.4964C79.3848 30.9556 79.9577 30.5069 80.3502 30.2059L80.9369 29.7278C80.9369 29.7278 79.9987 30.2249 78.3623 31.0656C77.9542 31.2745 77.5022 31.4999 76.9979 31.7476C76.4937 31.9953 75.9697 32.2644 75.3912 32.5427C74.8128 32.821 74.2056 33.1223 73.5507 33.418C72.8959 33.7138 72.231 34.0609 71.5096 34.3769C70.0802 35.0338 68.5238 35.7122 66.8758 36.4287C66.0462 36.7676 65.1976 37.1322 64.3226 37.4788C63.4476 37.8254 62.5726 38.172 61.6424 38.5234L58.8496 39.5374L56.3455 40.3538ZM38.506 39.7681L38.465 38.3683L37.4844 39.1115L38.177 36.4197L36.3795 38.2932C36.3639 38.2011 36.4027 38.0999 36.4182 37.9981C36.4965 37.5424 36.6192 37.0944 36.7845 36.66C36.3502 36.9147 35.9437 37.2117 35.5714 37.5463L35.5229 37.5906L35.5407 37.4478C35.5982 37.0386 35.6856 36.6336 35.8023 36.2357C35.4169 36.4591 35.0489 36.7098 34.7015 36.9858L35.5985 34.895L33.7556 36.3073L33.7792 36.2537C33.9694 35.8469 34.1881 35.4528 34.4338 35.0743C33.9956 35.2122 33.5666 35.3767 33.1493 35.5669L33.2286 35.346C33.359 35.0101 33.5126 34.6828 33.6883 34.3664C33.3118 34.4316 32.9403 34.5232 32.5769 34.6403C32.4816 34.6564 32.3907 34.6989 32.2984 34.7326C32.4237 34.5626 32.5663 34.3851 32.7143 34.2112C33.0723 33.782 33.455 33.3724 33.8604 32.9846C33.2881 33.1051 32.7231 33.258 32.1686 33.4425C32.0354 33.4831 31.903 33.528 31.7713 33.5774L31.7668 33.5511C31.9203 33.2934 32.0432 33.02 32.133 32.7361C31.8532 32.7658 31.5713 32.7652 31.2924 32.7342L31.1299 32.7121L31.9588 31.6249L31.0953 31.681L31.1992 31.5777C31.5482 31.2443 31.9178 30.9318 32.3058 30.6418C31.8008 30.6403 31.2958 30.6686 30.7936 30.7266L30.7301 30.7373L31.8347 29.9551L30.2566 29.8436L32.4382 28.6941L30.7253 28.3936L31.5471 27.8982L30.7657 27.5571L33.1794 27.3647L31.3953 26.6163C31.747 26.5074 32.0892 26.371 32.4187 26.2086C32.1056 26.0655 31.8055 25.8977 31.5214 25.7068L33.2098 25.3667L32.4493 24.8733L33.6604 24.8846L32.8203 24.1972L34.5785 24.2963L33.7538 23.5342L35.3529 23.7142L34.0957 22.7413L35.6114 23.0076L34.9578 22.1805L36.4045 22.2601L35.8643 21.4138L37.3743 22.0598L36.6359 20.7871L37.655 20.9888L37.5067 20.306C37.6004 20.3352 37.6986 20.3637 37.7983 20.4009C38.1279 20.5211 38.4463 20.6677 38.7502 20.8393C38.7107 20.5167 38.6472 20.1974 38.5604 19.8841L39.7212 20.481L39.3937 19.3462L40.6386 19.8883L40.7267 19.0302L41.5967 19.8117L41.6958 18.7985L42.2618 19.6044L42.3224 18.3632L42.9853 19.3556L43.4909 18.4268L44.0037 19.5799L44.5181 18.2619L44.9874 19.269L45.5602 17.9095L45.8745 18.6904L46.4754 17.7455L46.915 18.6044L47.3745 17.9269L47.759 18.7635L48.3937 17.8805L48.8755 20.0082L49.6681 18.1832L49.9331 19.527L50.7628 18.1962L51.1525 19.2844L52.0067 18.3462L51.9749 19.5645L53.1961 18.5055L52.8832 19.6902L53.9832 19.1837C53.9178 19.3211 53.8485 19.4636 53.7846 19.6097C53.4909 20.2656 53.2448 20.94 53.048 21.6281C53.5199 21.1042 54.0275 20.6115 54.5676 20.1534C54.792 19.9621 55.0231 19.7831 55.239 19.6248L55.1403 20.0338L55.8395 19.8072L55.1847 21.0408L56.7154 20.1548L55.3208 21.7887L57.4839 20.9715L56.3296 22.1499L58.1004 21.8275L57.1705 22.8146L58.6154 22.7457C58.6236 22.7939 58.631 22.8378 58.6384 22.8816L56.0639 24.2194L58.7161 24.1399L57.2564 24.838L59.1265 25.157L58.9016 25.2628C58.3262 25.5315 57.7155 25.7567 57.7155 25.7567C57.7155 25.7567 58.2674 25.9834 58.8746 26.1781L58.0055 26.5598L58.7064 27.0317L56.6992 27.2815L58.5787 27.9867L57.7268 28.1941L58.5555 28.8698L57.7536 29.0417L58.2819 29.5699L56.6639 29.6366L58.4024 30.6948L57.1996 30.7046L57.9359 31.4411L56.8208 31.4451L57.572 32.2421L55.9528 31.7228L56.5833 32.6891L55.5634 32.4831L56.5686 33.7873L55.4594 33.5783L56.0789 34.6728L55.0366 34.3623L55.6961 35.4996L54.1928 34.893L54.748 35.7729L53.526 35.1457L54.3704 36.6033L53.5882 36.2849L53.765 36.8051L52.5099 35.8995L53.0191 37.2245L51.9402 36.5325L52.3405 37.8489L51.7037 37.4518L51.7303 38.6286L50.4398 37.1834L50.7798 39.1908C50.6397 39.0252 50.483 38.8443 50.3187 38.6738C49.9554 38.2891 49.571 37.9238 49.167 37.5793C49.278 38.0757 49.3629 38.5774 49.4216 39.0827C49.4438 39.2142 49.4646 39.3369 49.4627 39.4635L48.0405 37.8197L48.2152 39.7604L47.5397 38.9145L47.3718 39.9078L46.3096 37.4951L46.02 40.1683L45.2299 38.2596L44.6497 40.8152L43.772 38.3893L43.3191 40.5942C43.2842 40.5245 43.2534 40.4529 43.2268 40.3799C43.0749 40.0124 42.9545 39.6332 42.8667 39.246C42.6492 39.5762 42.4564 39.9207 42.2896 40.2771L41.782 37.9688L40.9079 40.4434C40.8555 40.279 40.8146 40.1112 40.7855 39.9411C40.6987 39.4842 40.6606 39.0192 40.6719 38.5536C40.3454 38.938 40.0623 39.3548 39.8274 39.7968L39.746 39.9504C39.72 39.797 39.6933 39.6392 39.7021 39.4708C39.6748 38.967 39.6875 38.4614 39.7401 37.9585C39.3807 38.359 39.055 38.7866 38.7662 39.2371C38.6711 39.4471 38.5806 39.6022 38.494 39.7521L38.506 39.7681ZM16.6435 38.8313C17.7418 36.8549 18.947 34.935 20.2538 33.0797C20.1284 33.3039 20.0166 33.5257 19.8987 33.7396L19.2664 35.0776C19.0723 35.4756 18.9283 35.8382 18.7912 36.159L18.4614 36.9678C18.2891 37.4118 18.1932 37.6445 18.1932 37.6445L18.6403 37.0593C18.9257 36.6773 19.3335 36.1077 19.8731 35.4076L20.7688 34.246L21.8435 32.9007C22.2283 32.4162 22.6501 31.9299 23.0993 31.412L23.7859 30.6149L24.4489 29.8984L24.3061 30.13C22.7088 32.7451 21.3932 35.4793 21.3932 35.4793C21.3932 35.4793 23.13 32.9714 25.1012 30.6627C26.1226 29.4436 27.2004 28.2827 28.0006 27.4663C28.0169 30.6209 29.0029 33.6887 30.833 36.2793C30.5822 35.9836 30.3374 35.6959 30.1289 35.4021C29.8272 34.9437 29.5132 34.5234 29.2545 34.0983C28.9958 33.6732 28.802 33.2732 28.5817 32.8822C28.3614 32.4912 28.2484 32.127 28.0997 31.8005C28.0246 31.6329 27.9563 31.4776 27.894 31.3304C27.8317 31.1831 27.7929 31.0364 27.7472 30.9044C27.6603 30.6395 27.5847 30.4134 27.521 30.2303C27.3928 29.8597 27.3269 29.6635 27.3269 29.6635C27.3269 29.6635 27.3611 29.8651 27.3901 30.257C27.4228 30.4498 27.4416 30.6991 27.4741 30.9732C27.4978 31.1134 27.5238 31.2668 27.5483 31.4115C27.5728 31.5561 27.6047 31.7446 27.6714 31.9182C27.7595 32.273 27.8513 32.6767 27.9664 33.1081C28.0814 33.5395 28.2827 33.9563 28.4671 34.4661C28.6515 34.976 28.9298 35.4338 29.1875 35.9628C29.3221 36.2314 29.4766 36.49 29.65 36.7366C29.8162 37.0016 29.9915 37.2649 30.166 37.551C30.3405 37.8371 30.5757 38.0678 30.7683 38.3508C30.976 38.6248 31.1983 38.8881 31.4342 39.1397C31.933 39.6751 32.4659 40.1796 33.0299 40.6505C34.2546 41.6773 35.6235 42.5321 37.0968 43.19L38.2799 43.6705L38.3207 43.6635L38.1106 43.6631C36.2636 43.6737 34.4195 43.5612 32.5914 43.3263C31.7163 43.2311 30.8845 43.0338 30.0571 42.9169C29.2297 42.8 28.4661 42.5641 27.7166 42.4115C26.9672 42.2589 26.2475 42.0066 25.5942 41.7881L24.6057 41.464L24.1132 41.313L23.6677 41.1359C23.0833 40.9103 22.5336 40.6968 22.0338 40.4748L21.3106 40.1464L20.6652 39.8364C19.8009 39.4265 18.9637 38.966 18.1581 38.4575C18.1581 38.4575 18.3344 38.6441 18.7114 38.968C19.2441 39.4316 19.8024 39.8668 20.3842 40.2718L20.9824 40.689L21.6569 41.1158C22.1201 41.4251 22.6529 41.7046 23.2106 42.0204L23.6423 42.2539L24.1005 42.4784L25.0569 42.9431L25.3853 43.0904C22.27 42.0873 19.3257 40.6528 16.6435 38.8313Z" fill="white" fill-opacity="0.2"/>
<path d="M22.3273 39.1762C22.9683 39.4329 23.728 39.701 24.5497 39.9766C25.3713 40.2523 26.2345 40.5525 27.1144 40.8138C27.9943 41.075 28.8696 41.3641 29.7013 41.5885C30.5329 41.8129 31.3139 42.0413 31.99 42.2018C32.6661 42.3624 33.2212 42.5254 33.6194 42.6157L34.2403 42.7811L33.597 42.7593C33.1866 42.7341 32.6001 42.6892 31.898 42.5962C31.196 42.5031 30.3928 42.3641 29.53 42.2037C28.6672 42.0432 27.7623 41.7726 26.8643 41.5144C25.9662 41.2562 25.1047 40.9107 24.2901 40.5662C23.4754 40.2217 22.7697 39.8588 22.1372 39.5421C21.5046 39.2254 21.0271 38.914 20.6785 38.7025L20.1504 38.3411L20.7522 38.5593C21.1259 38.7259 21.6726 38.949 22.3273 39.1762Z" fill="white" fill-opacity="0.2"/>
<path d="M63.399 36.6839C64.2106 36.3211 65.1312 35.8856 66.1556 35.401C67.1799 34.9164 68.2383 34.4396 69.3036 33.921C70.3689 33.4024 71.4696 32.9274 72.4516 32.441C73.4336 31.9545 74.3988 31.5341 75.1961 31.142C75.9934 30.75 76.6785 30.4401 77.1509 30.2248L77.8974 29.891L77.2238 30.3522C76.8049 30.6351 76.1633 31.0368 75.4074 31.5075C74.6514 31.9782 73.7321 32.4766 72.7597 33.02C71.7874 33.5635 70.707 34.0756 69.6333 34.6001C68.5597 35.1246 67.4622 35.563 66.4244 35.9957C65.3866 36.4285 64.4064 36.7884 63.5634 37.0754C62.7203 37.3625 62.0022 37.5878 61.505 37.7397L60.7128 37.9685L61.4495 37.6048C61.9219 37.3895 62.6146 37.0693 63.399 36.6839Z" fill="white" fill-opacity="0.2"/>
<path d="M29.7673 40.7928L28.3561 40.4547L26.7754 39.9695L25.232 39.3742L23.926 38.7748L23.0264 38.2869L22.6929 38.0818L23.0827 38.1511L24.083 38.3785L25.4743 38.765L27.0437 39.2657L28.5833 39.8391L29.9099 40.3945L30.8293 40.8339L31.178 41.0183L30.7828 40.9725L29.7673 40.7928Z" fill="white" fill-opacity="0.2"/>
</svg>
