<svg width="58" height="19" viewBox="0 0 58 19" fill="none" xmlns="http://www.w3.org/2000/svg">
<g clip-path="url(#clip0)">
<path d="M6.57415 18.0748C5.34391 18.0748 5.95903 9.87316 5.95903 8.77961C5.95903 7.54936 5.95903 7.48102 5.07052 6.59251C3.97697 5.43061 2.88341 4.33705 1.78986 3.17515C1.78986 6.86589 1.78986 10.625 1.78986 14.3157C1.78986 14.8625 2.19994 18.0065 1.17474 18.0065C0.149534 18.0065 0.559616 15.0675 0.559616 14.5208C0.559616 12.1286 0.559616 9.73647 0.559616 7.41267C0.559616 5.70399 0.286228 3.79028 0.559616 2.0816C0.969698 0.0995392 2.47333 2.2183 3.1568 2.90177C4.25035 4.06367 6.16407 5.43061 6.98423 6.79755C7.32597 7.34432 7.18928 8.09614 7.18928 8.77961C7.18928 10.0099 7.18928 11.3084 7.18928 12.5387C7.12093 13.2222 7.6677 18.0748 6.57415 18.0748Z" fill="#F6C866"/>
<path d="M22.0889 5.77233C21.132 4.81547 20.1751 3.85861 19.2183 2.90175C18.7399 2.42333 17.0312 0.0311803 16.3477 1.19308C15.9376 1.9449 16.2794 3.72192 16.2794 4.54208C16.2794 6.25076 16.2794 8.02778 16.2794 9.73646C16.2794 12.0603 16.2794 14.3157 16.2794 16.6395C16.2794 16.9812 16.1427 17.5964 16.4844 17.8698C17.1679 18.4849 17.4413 17.5964 17.5096 17.1179C17.783 15.4776 17.4413 13.7006 17.5096 12.1286C17.578 10.8984 18.4665 10.3516 19.355 9.46307C19.7651 8.98464 22.8407 6.52415 22.0889 5.77233ZM17.4413 9.66811C17.4413 7.41266 17.4413 5.08886 17.4413 2.83341C18.0564 3.44853 18.6715 4.06365 19.2183 4.67878C19.4917 4.95217 20.7903 5.90902 20.7903 6.25076C20.7903 6.59249 19.355 7.68605 19.0816 7.95943C18.6032 8.50621 18.0564 9.05299 17.4413 9.66811Z" fill="#F6C866"/>
<path d="M41.2944 18.2115C40.6109 18.2115 39.7908 16.913 39.3807 16.5712C38.6972 15.8878 37.6037 14.2474 36.7152 13.9057C36.2367 13.7006 36.3051 13.8373 35.7583 14.3841C34.8014 15.341 33.9129 16.2295 32.9561 17.1863C32.4093 17.7331 31.7258 18.6216 31.2474 17.4597C31.1107 17.118 31.2474 16.3662 31.2474 16.0244C31.2474 13.6323 31.2474 11.2402 31.2474 8.77966C31.2474 6.59256 31.1791 4.40546 31.2474 2.21835C31.2474 1.67158 31.1107 0.851411 31.9309 0.919758C32.546 0.988105 33.4345 2.2867 33.7762 2.62843C34.3914 3.24356 35.4166 4.74719 36.2367 5.08892C36.7835 5.29397 36.7835 5.02058 37.3303 4.4738C38.2188 3.58529 39.1073 2.69678 39.9958 1.80827C40.4742 1.32984 42.4563 -0.0371 41.7045 1.80827C41.3628 2.56009 40.1325 3.38025 39.5174 3.99537C38.7656 4.74719 37.9454 5.97744 36.9886 6.52421C35.6216 7.27603 33.3662 3.99537 32.4093 3.03852C32.4093 7.41272 32.4093 11.7869 32.4093 16.0928C33.2978 15.2043 34.118 14.3841 35.0065 13.4956C35.7583 12.7438 36.1 12.0603 37.1252 12.7438C38.2188 13.4273 39.1073 14.7259 39.9958 15.6144C40.2009 15.6827 43.0031 18.2115 41.2944 18.2115Z" fill="#F6C866"/>
<path d="M56.5358 0.919551C55.5789 0.509469 52.845 4.06351 52.1615 4.74698C51.273 3.85847 50.3845 2.96996 49.496 2.08145C48.9492 1.53467 47.924 0.167734 47.4456 1.53467C47.1722 2.28649 47.4456 3.51674 47.4456 4.26855C47.4456 5.90888 47.4456 7.48086 47.4456 9.12119C47.4456 10.7615 47.4456 12.4018 47.4456 14.1105C47.4456 15.0674 47.2406 16.2293 47.4456 17.1861C47.6506 18.2113 48.4708 18.2113 48.6075 17.1861C48.8125 15.8192 48.6075 14.1789 48.6075 12.7436C48.6075 11.7184 48.4025 10.5565 48.9492 9.73631C49.7011 8.50607 51.2047 7.48086 52.1615 6.524C53.1868 7.54921 55.3739 8.9845 55.7156 10.3514C56.2624 12.5385 55.1688 15.1357 55.7156 17.3228C55.989 18.2113 56.6725 18.2797 56.8775 17.3228C57.0142 16.7077 56.8775 15.8192 56.8775 15.1357C56.8775 12.3335 56.8775 9.59962 56.8775 6.79739C56.8775 5.4988 56.8775 4.20021 56.8775 2.83327C56.9458 2.42318 57.1509 1.19294 56.5358 0.919551C56.3307 0.851204 56.7408 1.05624 56.5358 0.919551ZM48.6075 8.30103C48.6075 6.524 48.6075 4.67864 48.6075 2.90161C49.0176 3.3117 51.3414 5.02037 51.3414 5.63549C51.3414 6.25062 49.0859 7.89094 48.6075 8.30103ZM53.0501 5.63549C53.9386 4.74698 54.8271 3.85847 55.7839 2.90161C55.7839 4.67864 55.7839 6.524 55.7839 8.30103C54.8271 7.41252 53.9386 6.524 53.0501 5.63549Z" fill="#F6C866"/>
</g>
<defs>
<clipPath id="clip0">
<rect width="56.523" height="17.3601" fill="white" transform="translate(0.491211 0.851318)"/>
</clipPath>
</defs>
</svg>
