<svg width="122" height="164" viewBox="0 0 122 164" fill="none" xmlns="http://www.w3.org/2000/svg">
<path d="M40.709 2.60742C-3.59924 2.60742 -39.6808 38.8163 -39.6808 83.2808C-39.6808 127.745 -3.59924 163.954 40.709 163.954C85.0172 163.954 121.099 127.745 121.099 83.2808C121.243 38.8163 85.1615 2.60742 40.709 2.60742ZM117.491 89.5087C116.625 100.227 113.449 110.22 108.831 118.766C104.357 127.311 98.2952 134.553 92.0892 140.201C85.7388 145.85 79.0998 149.905 72.7494 152.657C66.5434 155.409 60.7703 157.002 56.0076 157.871C51.2448 158.74 47.348 158.885 44.7501 159.03C42.1522 159.03 40.709 159.03 40.709 159.03C40.709 159.03 42.1522 158.885 44.7501 158.885C47.348 158.595 51.1005 158.306 55.8632 157.147C60.626 156.133 66.2547 154.25 72.1721 151.354C78.2338 148.457 84.5842 144.257 90.6459 138.608C96.5633 132.959 102.192 125.862 106.377 117.462C110.563 109.062 113.305 99.3576 114.171 89.2191C114.893 78.9357 113.594 68.3628 109.986 58.3691C107.388 50.9825 103.347 44.0304 98.5839 37.8025C100.027 42.7269 101.615 49.5341 102.192 57.3553C102.048 57.2104 101.903 57.0656 101.759 56.9207C100.893 56.1966 99.8828 55.9069 99.3055 55.9069C99.0168 55.9069 98.7282 56.0517 98.5839 56.0517C98.4395 56.0517 98.2952 56.1966 98.2952 56.1966C98.2952 56.1966 98.4395 56.1966 98.5839 56.1966C98.7282 56.1966 99.0168 56.3414 99.1612 56.4862C99.5941 56.7759 100.171 57.2104 100.749 57.9346C101.182 58.6588 101.615 59.6726 101.759 60.6865C101.759 60.8313 101.759 60.9761 101.759 61.121V61.5555C101.759 61.8451 101.759 62.1348 101.759 62.2797C101.759 62.859 101.615 63.2935 101.47 63.8729C101.326 64.3074 101.037 64.7419 100.749 65.0315C100.46 65.3212 100.316 65.466 99.7385 65.6109C99.5941 65.6109 99.0168 65.6109 98.7282 65.466C98.2952 65.3212 98.0066 65.0315 97.5736 64.7419C96.8519 64.1625 96.419 63.4383 96.1303 63.0038C95.8417 62.5693 95.6973 62.1348 95.6973 62.1348C95.6973 62.1348 95.6973 62.2797 95.6973 62.4245C95.6973 62.5693 95.6973 62.859 95.6973 63.1487C95.6973 63.728 95.8417 64.7419 96.419 65.6109C96.7076 66.0454 97.1406 66.6247 97.7179 67.0592C98.2952 67.4937 99.0168 67.9282 100.027 67.9282C100.749 67.9282 101.903 67.6386 102.481 67.0592L102.625 66.9144C102.481 71.4043 101.903 76.1839 100.893 81.1083C101.903 81.1083 102.625 80.6738 103.202 80.2393C103.78 79.8048 104.213 79.3702 104.501 78.9357C104.79 78.5012 105.079 78.2116 105.223 78.0667C105.367 77.9219 105.512 77.7771 105.512 77.7771C105.512 77.7771 105.512 78.0667 105.512 78.3564C105.512 78.7909 105.367 79.3702 105.079 79.9496C104.79 80.5289 104.213 81.2531 103.491 81.8325C102.769 82.4118 101.903 82.7015 100.893 82.7015C99.8828 82.7015 99.0168 82.4118 98.2952 81.8325C97.5736 81.2531 97.1406 80.5289 96.8519 79.9496C96.5633 79.3702 96.419 78.6461 96.419 78.3564C96.419 77.9219 96.419 77.7771 96.419 77.7771C96.419 77.7771 95.8417 78.0667 95.6973 79.3703C95.6973 80.0944 95.6973 80.9634 96.419 82.1221C96.9963 83.136 98.2952 84.2947 100.171 84.5843C99.8828 85.4533 99.7385 86.3224 99.4498 87.1914C98.2952 87.1914 97.2849 87.6259 96.5633 88.4949C95.2644 90.0881 95.553 92.5503 97.1406 93.8538C95.986 96.7505 94.5427 99.7921 92.9551 102.689C94.3984 102.834 95.553 102.399 96.419 101.965C97.5736 101.385 98.2952 100.661 98.8725 100.082C99.4498 99.5024 99.7385 99.0679 100.027 98.923C100.316 98.6334 100.46 98.6334 100.46 98.6334C100.46 98.6334 100.316 98.923 100.171 99.6472C99.8828 100.227 99.4498 101.096 98.7282 101.965C98.0065 102.834 96.9963 103.558 95.6973 104.137C95.12 104.427 94.3984 104.572 93.6768 104.572C92.9551 104.572 92.2335 104.572 91.5119 104.282C90.7902 104.137 90.0686 103.703 89.4913 103.413C88.914 102.978 88.3367 102.544 87.9037 101.965C87.0377 100.806 86.6048 99.6472 86.4604 98.4885C86.3161 97.3299 86.3161 96.4608 86.4604 95.8815C86.6048 95.3022 86.6048 94.8677 86.6048 94.8677C86.6048 94.8677 86.4604 94.8677 86.3161 95.1573C86.0275 95.447 85.7388 95.8815 85.4502 96.8953C85.3058 97.7644 85.0172 99.2127 85.7388 100.951C86.0275 101.82 86.6048 102.834 87.4707 103.703C88.3367 104.572 89.4913 105.441 91.0789 105.875C90.5016 106.889 89.78 107.903 89.2026 108.917C88.7697 108.917 88.3367 108.917 87.9037 108.917C85.4502 109.351 83.8626 111.379 84.1512 113.407C84.1512 113.551 84.2955 113.841 84.2955 113.986C82.5636 113.551 80.976 111.958 80.5431 109.496C79.8214 105.151 76.0689 96.1712 72.6051 94.2883C68.8526 92.2606 65.8218 97.185 67.8423 98.7782C72.4608 102.254 70.1516 108.917 70.5845 114.71C70.7289 117.027 71.8835 118.91 72.8938 120.648C70.5845 121.373 69.1413 123.545 69.5742 125.573C69.7186 126.731 70.4402 127.6 71.4505 128.18C70.0072 129.339 68.7083 130.352 67.265 131.366C67.265 131.221 67.265 131.077 67.265 130.932C67.1207 129.049 66.5434 127.456 65.8218 126.297C65.1001 125.138 64.2342 124.269 63.5125 123.835C61.925 122.676 60.7703 122.531 60.193 122.531C59.4714 122.531 59.3271 122.531 59.3271 122.531C59.3271 122.531 59.4714 122.531 59.76 122.676C60.0487 122.821 60.4817 122.966 61.059 123.255C62.0693 123.835 63.6569 125.138 64.6672 127.021C65.6774 128.904 65.9661 131.656 64.9558 134.263C64.0899 136.87 61.925 139.187 59.3271 140.491C56.7292 141.794 53.554 141.939 51.1005 140.925C48.5026 139.911 46.6264 137.884 45.9047 135.856C45.0388 133.828 45.1831 131.946 45.4717 130.642C45.6161 130.063 45.7604 129.483 45.9047 129.194C46.049 128.904 46.049 128.759 46.049 128.759C46.049 128.759 45.9047 128.904 45.4717 129.483C45.1831 130.063 44.4615 131.077 44.3171 132.959C44.1728 133.828 44.1728 134.987 44.6058 136.435C44.8944 137.739 45.7604 139.187 47.0593 140.636C47.348 140.925 47.6366 141.215 48.0696 141.505C46.482 142.084 44.8944 142.519 43.3068 142.953C42.8739 141.794 42.2966 141.07 41.7193 140.491C40.9976 139.767 40.276 139.332 39.6987 139.042C38.3997 138.463 37.6781 138.463 37.1008 138.463C36.6678 138.463 36.3792 138.608 36.3792 138.608C36.3792 138.608 36.5235 138.608 36.6678 138.753C36.9565 138.898 37.2451 139.042 37.6781 139.187C38.5441 139.622 39.5544 140.346 40.5647 141.505C40.9976 142.084 41.4306 142.808 41.7193 143.677C42.0079 144.546 41.8636 145.56 41.5749 146.429C40.8533 148.312 38.8327 149.471 36.8122 149.905C32.771 150.774 28.2969 148.891 26.565 146.284C25.699 144.981 25.4104 143.677 25.5547 142.663C25.5547 142.229 25.699 141.794 25.8434 141.65C25.9877 141.36 25.9877 141.36 25.9877 141.36C25.9877 141.36 25.8434 141.36 25.4104 141.794C25.1217 142.229 24.5444 142.953 24.5444 144.401C24.5444 144.691 24.5444 145.126 24.6887 145.56C23.6785 145.56 22.6682 145.56 21.8022 145.56C21.9465 145.126 21.9465 144.546 21.8022 144.112C21.3692 141.794 18.7714 140.201 16.0292 140.781C15.8848 140.781 15.5962 140.925 15.4518 140.925C15.4518 139.911 15.7405 138.898 16.3178 138.173C18.9157 134.408 26.4207 131.656 26.7093 125.138C26.8536 120.359 6.50361 121.952 6.50361 129.628C6.64793 137.16 3.1841 136.58 0.586227 140.781C0.153248 141.505 -0.279732 142.084 -0.712711 142.519C-2.58895 141.939 -4.32087 141.505 -5.76414 140.925C-5.61981 140.781 -5.61981 140.636 -5.47548 140.491C-4.89818 139.477 -5.33116 138.029 -6.63009 137.304C-7.7847 136.58 -9.3723 136.87 -9.9496 137.884C-10.0939 138.173 -10.0939 138.318 -10.2383 138.608C-24.8152 124.849 -33.9078 105.296 -33.9078 83.5705C-33.9078 83.5705 -33.9078 82.1221 -33.9078 79.5151C-33.7635 76.9081 -33.6191 72.9975 -32.7532 68.2179C-31.8872 63.4383 -30.2996 57.6449 -27.5574 51.417C-24.8152 45.1891 -20.7741 38.3818 -15.1454 32.1539C-9.51662 25.7811 -2.44463 19.8428 6.21495 15.3529C14.7302 10.7182 24.6887 7.53183 35.3689 6.66282C45.9047 5.7938 57.1622 6.95249 67.698 10.863C78.2338 14.6288 88.048 20.8567 96.1303 28.9675C104.068 37.0783 110.419 46.9271 114.171 57.5001C117.202 67.6386 118.357 78.9357 117.491 89.5087Z" fill="white" fill-opacity="0.2"/>
<path d="M61.0593 104.281C60.3376 103.123 59.4717 102.109 58.6057 101.385C57.7398 100.66 56.7295 100.226 55.8635 99.9363C54.9976 99.6466 54.2759 99.5018 53.5543 99.3569C52.8327 99.3569 52.3997 99.3569 52.111 99.3569C51.8224 99.3569 51.5337 99.3569 51.5337 99.3569C51.5337 99.3569 51.6781 99.3569 52.111 99.5018C52.3997 99.5018 52.977 99.6466 53.5543 99.7914C54.1316 99.9363 54.8532 100.226 55.5749 100.66C56.2965 101.095 57.0181 101.674 57.7398 102.398C58.4614 103.123 59.0387 103.992 59.4717 105.006C59.9047 106.019 60.1933 107.178 60.1933 108.337C60.1933 108.626 60.1933 108.916 60.1933 109.206C60.1933 109.495 60.1933 109.93 60.049 110.22C59.9047 110.799 59.7603 111.378 59.616 111.958C59.183 113.116 58.4614 114.13 57.5954 114.999C56.7295 115.868 55.7192 116.592 54.5646 117.027C53.41 117.461 52.2554 117.606 50.9564 117.606C49.8018 117.606 48.6472 117.317 47.6369 116.882C46.6266 116.448 45.7607 115.868 45.039 115.144C44.3174 114.42 43.7401 113.696 43.3071 112.971C42.8741 112.247 42.5855 111.523 42.4412 110.944C42.2968 110.364 42.1525 109.93 42.1525 109.495C42.1525 109.206 42.0082 108.916 42.0082 108.916C42.0082 108.916 42.0082 109.061 42.0082 109.495C42.0082 109.785 42.0082 110.364 42.0082 110.944C42.1525 111.523 42.1525 112.392 42.5855 113.261C42.8741 114.13 43.3071 114.999 44.0287 116.013C45.472 117.896 47.7812 119.489 50.9564 119.779C52.3997 119.924 53.9873 119.779 55.4305 119.199C56.8738 118.62 58.3171 117.751 59.4717 116.737C60.6263 115.579 61.4922 114.13 61.9252 112.682C62.2139 111.958 62.3582 111.233 62.5025 110.364C62.5025 109.93 62.5025 109.64 62.5025 109.351C62.5025 108.916 62.5025 108.626 62.5025 108.192C62.2139 106.744 61.6366 105.44 61.0593 104.281Z" fill="white" fill-opacity="0.2"/>
<path d="M18.483 99.502C18.1943 97.3295 16.8954 95.7363 15.5965 94.7225C14.8748 94.288 14.2975 93.9983 13.7202 93.7086C13.1429 93.5638 12.5656 93.4189 12.1326 93.4189C11.6996 93.4189 11.2667 93.4189 11.1223 93.4189C10.8337 93.4189 10.8337 93.4189 10.8337 93.4189C10.8337 93.4189 10.978 93.4189 11.1223 93.5638C11.411 93.5638 11.6996 93.7086 11.9883 93.8535C12.7099 94.1431 13.7202 94.7225 14.5862 95.7363C15.0192 96.1708 15.4521 96.7502 15.7408 97.4743C16.0294 98.1985 16.1738 98.9227 16.1738 99.6469C16.1738 99.7917 16.1738 100.081 16.1738 100.226C16.1738 100.371 16.1738 100.661 16.1738 100.95C16.1738 101.24 16.0294 101.675 15.8851 101.964C15.5965 102.688 15.1635 103.413 14.7305 103.847C14.1532 104.426 13.5759 104.861 12.8543 105.151C12.1326 105.44 11.411 105.585 10.545 105.585C9.8234 105.585 9.10176 105.44 8.38013 105.151C7.6585 104.861 7.0812 104.571 6.64822 104.137C6.21524 103.702 5.78225 103.268 5.4936 102.833C5.20495 102.399 4.91629 101.964 4.77197 101.53C4.62764 101.095 4.48332 100.806 4.48332 100.661C4.48332 100.371 4.33899 100.371 4.33899 100.371C4.33899 100.371 4.33899 100.516 4.33899 100.661C4.33899 100.95 4.33899 101.24 4.33899 101.675C4.33899 102.109 4.48332 102.688 4.62764 103.268C4.77197 103.847 5.20495 104.571 5.63793 105.151C6.07091 105.73 6.79254 106.454 7.51417 106.889C8.38013 107.323 9.24609 107.758 10.4007 107.903C11.411 108.047 12.5656 107.903 13.5759 107.613C14.5862 107.323 15.5965 106.599 16.4624 105.73C17.3284 104.861 17.9057 103.847 18.1943 102.833C18.3387 102.254 18.483 101.675 18.483 101.095C18.483 100.806 18.483 100.661 18.483 100.371C18.6273 99.9366 18.483 99.7917 18.483 99.502Z" fill="white" fill-opacity="0.2"/>
<path d="M28.4415 81.832C29.1632 81.9769 30.0291 81.9769 30.7508 81.6872C31.4724 81.3975 32.3383 80.963 32.9156 80.3837C33.493 79.8043 33.9259 79.0801 34.2146 78.2111C34.3589 77.7766 34.3589 77.487 34.3589 76.9076C34.3589 76.6179 34.3589 76.6179 34.3589 76.4731C34.3589 76.1834 34.3589 76.0386 34.3589 75.8938C34.0703 74.3006 33.2043 73.1419 32.194 72.5626C31.1837 71.9832 30.3178 71.8384 29.7405 71.8384C29.1632 71.8384 28.8745 71.9832 28.8745 71.9832C28.8745 71.9832 29.0188 71.9832 29.1632 72.1281C29.3075 72.1281 29.5961 72.2729 29.7405 72.4177C30.1734 72.7074 30.8951 73.1419 31.3281 73.7212C31.9054 74.4454 32.194 75.3144 32.194 76.1834C32.194 76.3283 32.194 76.4731 32.194 76.4731C32.194 76.6179 32.194 76.7628 32.194 76.9076C32.194 77.0525 32.0497 77.3421 32.0497 77.487C31.9054 77.9215 31.6167 78.356 31.3281 78.6456C31.0394 78.9353 30.6064 79.225 30.1734 79.3698C29.7405 79.5147 29.3075 79.6595 28.8745 79.6595C28.4415 79.6595 28.0086 79.6595 27.5756 79.5147C27.1426 79.3698 26.7096 79.225 26.421 78.9353C25.6993 78.5008 25.2663 77.7766 24.9777 77.3421C24.8334 77.0525 24.689 76.9076 24.689 76.7628C24.689 76.6179 24.5447 76.4731 24.5447 76.4731C24.5447 76.4731 24.5447 76.6179 24.5447 76.7628C24.5447 76.9076 24.4004 77.1973 24.4004 77.487C24.4004 78.0663 24.5447 79.0801 25.2663 79.9492C25.555 80.3837 25.988 80.8182 26.5653 81.2527C26.8539 81.5424 27.5756 81.832 28.4415 81.832Z" fill="white" fill-opacity="0.2"/>
<path d="M-11.9699 32.4434C-11.9699 32.1538 -11.8256 32.1538 -11.8256 32.1538C-11.8256 32.1538 -11.9699 32.2986 -11.9699 32.4434C-12.2586 32.5883 -12.4029 32.8779 -12.5472 33.3124C-12.6916 33.747 -12.9802 34.3263 -12.9802 34.9056C-13.1245 35.6298 -13.1245 36.354 -12.6916 37.223C-12.4029 38.092 -11.6813 38.8162 -10.671 39.3955C-10.238 39.6852 -9.6607 39.83 -9.0834 39.9749C-8.79474 40.1197 -8.65042 40.1197 -8.36177 40.1197H-8.21744C-8.07311 40.1197 -8.07311 40.1197 -7.92879 40.1197H-7.49581C-5.33091 40.1197 -3.16602 39.2507 -1.4341 37.9472C-0.568143 37.3678 0.297816 36.6437 1.01945 35.7747C1.3081 35.3401 1.74108 34.9056 2.02973 34.4711C2.31839 34.0366 2.60704 33.4573 2.75137 33.0228C3.18435 32.1538 3.473 31.1399 3.61732 30.1261C3.76165 29.1122 3.473 28.0984 3.04002 27.3742C2.60704 26.5052 2.02973 26.0707 1.45243 25.6362C0.875121 25.3465 0.297818 25.2017 -0.135161 25.2017C-1.14545 25.2017 -1.57843 25.3465 -1.57843 25.3465C-1.57843 25.3465 -1.4341 25.3465 -1.28977 25.4913C-1.00112 25.4913 -0.712467 25.6362 -0.279489 25.781C0.153491 25.9258 0.586469 26.2155 0.875122 26.5052C1.3081 26.9397 1.59675 27.3742 1.74108 27.9535C1.88541 28.5329 1.88541 29.2571 1.74108 29.9812C1.59675 30.7054 1.3081 31.4296 0.875122 32.1538C0.586469 32.5883 0.442142 32.8779 0.15349 33.1676C-0.135163 33.4573 -0.423816 33.8918 -0.712469 34.1815C-1.28977 34.7608 -2.01141 35.485 -2.73304 35.9195C-4.1763 36.9333 -5.90822 37.6575 -7.49581 37.9472H-7.78446H-7.92879H-8.07311C-8.36176 37.9472 -8.50609 37.9472 -8.65042 37.9472C-8.93907 37.9472 -9.37205 37.9472 -9.6607 37.8023C-10.238 37.6575 -10.8153 37.223 -11.104 36.7885C-11.8256 35.7747 -11.8256 34.4711 -11.6813 33.747C-12.1143 33.0228 -11.9699 32.7331 -11.9699 32.4434Z" fill="white" fill-opacity="0.2"/>
<path d="M53.1214 26.0703C54.5647 26.0703 56.1522 26.0703 57.5955 25.7807C59.0388 25.491 60.482 25.0565 61.9253 24.3323C63.0799 23.753 64.3789 22.5943 65.1005 21.2908C65.3891 20.5666 65.6778 19.8424 65.6778 19.1182C65.6778 18.3941 65.5335 17.8147 65.2448 17.2354C64.8118 16.0767 64.0902 15.2077 63.3686 14.6283C62.6469 14.049 62.0696 13.6145 61.4923 13.3248C60.915 13.0351 60.482 12.8903 60.1934 12.7455C59.9047 12.6006 59.7604 12.6006 59.7604 12.6006C59.7604 12.6006 59.9047 12.7455 60.1934 12.8903C60.482 13.0351 60.915 13.4697 61.348 13.7593C61.781 14.1938 62.3583 14.7732 62.7913 15.3525C63.2243 16.0767 63.8016 16.8009 63.9459 17.6699C64.0902 18.5389 64.0902 19.5527 63.5129 20.2769C62.9356 21.1459 62.0696 21.7253 60.915 22.3046C59.9047 22.7391 58.6058 23.0288 57.3069 23.3185C56.0079 23.4633 54.709 23.6081 53.2657 23.4633C51.9668 23.4633 50.5235 23.1736 49.2246 22.884C47.9256 22.5943 46.6267 22.1598 45.4721 21.7253C45.1834 21.5804 44.8948 21.4356 44.6061 21.2908C44.3175 21.1459 44.0288 21.0011 43.7402 20.8563C43.1629 20.5666 42.7299 20.2769 42.2969 19.9873C41.431 19.2631 40.7093 18.5389 40.132 17.6699C39.699 16.8009 39.4104 15.9319 39.5547 15.2077C39.699 14.4835 39.9877 13.7593 40.2763 13.3248C40.565 12.8903 40.998 12.4558 41.1423 12.1661C41.431 11.8765 41.5753 11.8765 41.5753 11.8765C41.5753 11.8765 41.431 12.0213 41.1423 12.1661C40.8536 12.311 40.4207 12.6006 39.9877 13.0351C39.5547 13.4697 38.9774 14.1938 38.6887 15.0628C38.4001 15.9319 38.4001 17.2354 38.9774 18.3941C39.4104 19.5527 40.2763 20.5666 41.1423 21.4356C41.5753 21.8701 42.1526 22.3046 42.7299 22.7391C43.0185 22.884 43.3072 23.0288 43.5958 23.3185C43.8845 23.4633 44.1732 23.6081 44.6061 23.8978C45.9051 24.4772 47.204 25.0565 48.6473 25.491C50.2349 25.7807 51.6781 26.0703 53.1214 26.0703Z" fill="white" fill-opacity="0.2"/>
<path d="M77.3683 63.8725C77.3683 63.438 77.5126 63.0035 77.5126 62.569C77.5126 62.1345 77.5126 61.8448 77.5126 61.4103C77.5126 60.9758 77.3683 60.6862 77.3683 60.2517C76.791 57.2101 75.0591 54.8927 73.1828 53.5892C72.3169 52.865 71.3066 52.4305 70.4406 52.1409C69.5747 51.8512 68.853 51.7064 68.1314 51.5615C67.4098 51.5615 66.9768 51.5615 66.6881 51.5615C66.3995 51.5615 66.1108 51.5615 66.1108 51.5615C66.1108 51.5615 66.2552 51.5615 66.6881 51.7064C66.9768 51.7064 67.5541 51.996 68.1314 52.1409C68.7087 52.4305 69.4303 52.7202 70.152 53.1547C70.8736 53.5892 71.5952 54.1686 72.3169 54.8927C73.7601 56.3411 74.9148 58.3688 75.2034 60.831C75.2034 61.1207 75.2034 61.4103 75.2034 61.7C75.2034 61.9897 75.2034 62.2794 75.2034 62.7139C75.0591 63.2932 75.0591 63.8725 74.9147 64.4519C74.6261 65.6106 73.9045 66.6244 73.0385 67.4934C72.1726 68.3624 71.1623 68.9418 70.0077 69.3763C69.4304 69.5211 68.853 69.666 68.2757 69.666H67.4098C67.1211 69.666 66.6881 69.666 66.3995 69.666C65.2449 69.5211 64.0903 69.2315 63.08 68.6521C62.0697 68.2176 61.2037 67.4934 60.4821 66.7693C59.7605 66.0451 59.1832 65.3209 58.7502 64.5967C58.3172 63.8725 58.0286 63.1484 57.7399 62.7139C57.5956 62.1345 57.3069 61.7 57.3069 61.2655C57.1626 60.9758 57.1626 60.831 57.1626 60.831C57.1626 60.831 57.1626 60.9758 57.1626 61.4103C57.1626 61.7 57.1626 62.2794 57.1626 62.8587C57.3069 63.438 57.4513 64.307 57.7399 65.1761C58.0286 66.0451 58.6059 66.9141 59.3275 67.7831C60.0491 68.6521 60.9151 69.5211 62.0697 70.2453C63.2243 70.9695 64.5232 71.5488 66.1108 71.8385C66.3995 71.8385 66.8325 71.9833 67.1211 71.9833C67.5541 71.9833 67.8428 71.9833 68.2757 71.9833C68.7087 71.9833 68.9974 71.9833 69.4303 71.8385C69.8633 71.6937 70.152 71.6937 70.585 71.5488C72.1725 71.1143 73.6158 70.2453 74.7704 69.0866C75.925 67.9279 76.791 66.4796 77.224 64.8864C77.224 64.7416 77.224 64.307 77.3683 63.8725Z" fill="white" fill-opacity="0.2"/>
<path d="M-3.02199 77.9215C-2.15603 77.7767 -1.14575 77.6318 -0.424116 77.0525C0.441842 76.618 1.16347 76.0386 1.74078 75.3144C2.31809 74.5903 2.89539 73.7213 3.18404 72.8522C3.4727 71.9832 3.61702 70.9694 3.4727 70.1004C3.32837 69.2314 3.03972 68.3623 2.60674 67.6382C2.17376 66.914 1.59645 66.4795 0.874821 66.045C-0.424117 65.3208 -1.57873 65.3208 -2.30036 65.3208C-2.73334 65.3208 -3.02199 65.4656 -3.16632 65.4656C-3.31064 65.4656 -3.45497 65.6105 -3.45497 65.6105C-3.45497 65.6105 -3.31064 65.6105 -3.16632 65.6105C-3.02199 65.6105 -2.73334 65.6105 -2.30036 65.7553C-1.57873 65.9001 -0.568442 66.1898 0.297516 66.914C1.16347 67.6382 1.88511 68.7968 1.88511 70.2452C1.88511 70.9694 1.74078 71.6936 1.59645 72.2729C1.3078 72.9971 1.01915 73.5764 0.441843 74.1558C-0.568442 75.3144 -1.86738 76.0386 -3.31064 76.3283C-3.74362 76.4731 -4.03228 76.4731 -4.32093 76.4731C-4.60958 76.4731 -5.04256 76.4731 -5.33121 76.3283C-5.90852 76.1835 -6.48583 75.8938 -7.06313 75.6041C-8.07342 75.0248 -8.65072 74.0109 -8.93937 73.4316C-9.22803 72.7074 -9.22803 72.2729 -9.22803 72.2729C-9.22803 72.2729 -9.22803 72.4177 -9.22803 72.5626C-9.22803 72.7074 -9.22803 73.1419 -9.22803 73.4316C-9.0837 74.1558 -8.79505 75.3144 -7.64044 76.3283C-7.06313 76.7628 -6.48583 77.1973 -5.61987 77.487C-5.18689 77.6318 -4.75391 77.7767 -4.32093 77.7767C-3.88795 77.9215 -3.31064 77.9215 -3.02199 77.9215Z" fill="white" fill-opacity="0.2"/>
<path d="M67.6983 24.3323C67.8427 24.1875 67.8427 24.1875 67.8427 24.1875C67.8427 24.1875 67.8427 24.1875 67.6983 24.3323C67.4097 24.3323 67.121 24.3323 66.8324 24.622C66.5437 24.9117 66.2551 25.2013 65.9664 25.7807C65.8221 26.36 65.6778 26.9394 65.8221 27.6636C65.9664 28.3877 66.2551 28.9671 66.6881 29.6913C66.8324 29.9809 67.121 30.2706 67.4097 30.5603C67.6984 30.8499 67.8427 30.9948 68.2757 31.4293C69.4303 32.4431 70.8735 33.3121 72.6054 33.7466C73.4714 33.8915 74.3374 34.0363 75.2033 34.0363C75.6363 34.0363 76.0693 34.0363 76.5023 33.8915C76.7909 33.8915 76.9352 33.7466 77.2239 33.7466C77.5126 33.6018 77.6569 33.6018 77.8012 33.457C78.6672 33.0225 79.3888 32.2983 79.6774 31.4293C79.9661 30.5603 79.8218 29.6913 79.5331 29.1119C78.9558 27.8084 78.2342 27.229 77.6569 26.7945C77.3682 26.6497 77.0796 26.5049 76.9352 26.36C76.7909 26.2152 76.6466 26.2152 76.6466 26.2152C76.6466 26.2152 76.6466 26.36 76.7909 26.5049C76.9352 26.6497 77.0796 26.9394 77.2239 27.229C77.5126 27.8084 77.9455 28.6774 78.0899 29.5464C78.0899 29.9809 78.0899 30.4154 77.8012 30.8499C77.6569 31.1396 77.2239 31.4293 76.7909 31.5741C76.6466 31.7189 76.5023 31.7189 76.3579 31.7189C76.2136 31.7189 76.0693 31.7189 75.925 31.7189C75.6363 31.7189 75.3477 31.7189 75.059 31.7189C74.4817 31.7189 73.7601 31.5741 73.1828 31.4293C72.6055 31.2844 71.8838 30.9948 71.3065 30.7051C70.7292 30.4154 70.1519 30.1258 69.5746 29.6913C69.4303 29.5464 68.9973 29.2567 68.853 29.1119C68.7086 28.9671 68.42 28.6774 68.2757 28.5326C67.8427 28.0981 67.554 27.6636 67.4097 27.229C66.9767 26.36 66.9767 25.6359 67.2654 25.0565C67.4097 24.7668 67.6983 24.4772 67.6983 24.3323Z" fill="white" fill-opacity="0.2"/>
<path d="M-0.568442 120.938C-1.29007 119.924 -2.15603 119.345 -2.73334 118.911C-3.02199 118.766 -3.31064 118.621 -3.45497 118.621C-3.5993 118.621 -3.74362 118.476 -3.74362 118.476C-3.74362 118.476 -3.45497 118.766 -3.02199 119.2C-2.58901 119.635 -2.0117 120.504 -1.57873 121.373C-1.14575 122.387 -0.71277 123.545 -0.71277 124.849C-0.71277 125.139 -0.712768 125.573 -0.857094 125.718C-0.857094 125.863 -1.00142 126.152 -1.00142 126.297C-1.00142 126.442 -1.00142 126.587 -1.14575 126.587C-1.4344 127.166 -1.72305 127.456 -2.15603 127.601C-2.58901 127.746 -3.16632 127.746 -3.74362 127.601C-4.03227 127.456 -4.32093 127.311 -4.60958 127.311L-5.04256 127.021L-5.47554 126.732C-6.48582 126.008 -7.35178 124.994 -7.78476 123.98C-8.36207 123.111 -8.65072 122.097 -8.79505 121.518C-8.93937 120.938 -8.93937 120.504 -8.93937 120.504C-8.93937 120.504 -8.93937 120.649 -9.0837 120.793C-9.0837 120.938 -9.22803 121.228 -9.22803 121.518C-9.22803 122.242 -9.22803 123.256 -8.79505 124.414C-8.36207 125.573 -7.64044 126.877 -6.48583 127.89L-6.05285 128.325L-5.61987 128.615C-5.33121 128.904 -4.89823 129.049 -4.46525 129.194C-3.5993 129.484 -2.58901 129.628 -1.57873 129.194C-0.568441 128.904 0.153192 128.035 0.58617 127.166C0.730496 127.021 0.730495 126.732 0.874822 126.442C0.874822 126.152 0.874822 126.008 1.01915 125.863C1.01915 125.283 1.01915 124.994 1.01915 124.559C0.874822 123.256 0.15319 121.952 -0.568442 120.938Z" fill="white" fill-opacity="0.2"/>
<path d="M36.3797 52.1406C37.5343 48.9542 40.7095 47.2162 48.0701 46.2023C55.4308 45.1885 63.6574 49.8232 72.8943 48.23C82.8528 46.492 71.451 43.885 59.6163 40.2641C47.9258 36.6432 47.2042 40.6986 38.1116 39.5399C29.1634 38.3812 24.5449 40.4089 23.246 45.7678C22.6687 48.3749 12.4215 44.3195 12.4215 49.2439C12.4215 51.8509 13.7204 54.7476 20.2151 57.6444C26.4212 60.5411 35.2251 55.327 36.3797 52.1406Z" fill="white" fill-opacity="0.2"/>
<path d="M0.730541 117.606C0.0089089 118.041 0.153236 119.344 0.874867 120.358C1.5965 121.372 2.75111 121.806 3.32841 121.372C4.05005 120.937 3.90572 119.634 3.18409 118.62C2.46246 117.606 1.30785 117.172 0.730541 117.606Z" fill="white" fill-opacity="0.2"/>
<path d="M37.2455 116.883C34.5033 117.317 32.4828 119.634 32.9157 122.097C33.3487 124.414 35.9466 126.007 38.6888 125.428C41.431 124.993 43.4516 122.676 43.0186 120.214C42.5856 117.896 39.9877 116.448 37.2455 116.883Z" fill="white" fill-opacity="0.2"/>
<path d="M28.5862 116.303C27.1429 116.593 26.2769 117.751 26.4213 118.91C26.5656 120.069 27.8645 120.793 29.3078 120.648C30.7511 120.358 31.617 119.2 31.4727 118.041C31.184 116.882 29.8851 116.158 28.5862 116.303Z" fill="white" fill-opacity="0.2"/>
<path d="M34.9363 112.537C33.7816 112.682 33.06 113.696 33.2043 114.709C33.3487 115.723 34.5033 116.303 35.5136 116.013C36.6682 115.868 37.3898 114.854 37.2455 113.84C37.1011 112.827 36.0909 112.247 34.9363 112.537Z" fill="white" fill-opacity="0.2"/>
<path d="M48.9357 50.4026C46.1934 48.2301 42.2966 48.3749 40.2761 50.9819C38.1112 53.589 38.5442 57.4995 41.2864 59.6721C44.0286 61.8446 47.9254 61.6998 49.9459 59.0927C52.1108 56.4857 51.6779 52.72 48.9357 50.4026Z" fill="white" fill-opacity="0.2"/>
<path d="M53.8435 50.2577C52.8333 51.4164 52.9776 53.2992 54.2765 54.3131C55.5755 55.3269 57.4517 55.1821 58.462 54.0234C59.4723 52.8647 59.3279 50.9819 58.029 49.968C56.7301 48.9542 54.8538 49.099 53.8435 50.2577Z" fill="white" fill-opacity="0.2"/>
<path d="M77.3679 82.1219C76.0689 83.2806 75.7803 85.1635 76.6462 86.3222C77.6565 87.4808 79.3884 87.4808 80.8317 86.3222C82.1307 85.1635 82.4193 83.2806 81.5533 82.1219C80.5431 80.9633 78.6668 80.9633 77.3679 82.1219Z" fill="white" fill-opacity="0.2"/>
<path d="M49.3689 88.0601C50.8122 88.4946 52.1111 87.7704 52.5441 86.6118C52.8328 85.4531 52.1112 84.1495 50.6679 83.8599C49.2246 83.4254 47.9257 84.1495 47.4927 85.3082C47.0597 86.4669 47.9257 87.6256 49.3689 88.0601Z" fill="white" fill-opacity="0.2"/>
<path d="M23.1016 21.4357C27.1428 20.4219 29.885 17.8149 29.3077 15.7872C28.7304 13.7595 25.1222 12.8904 21.0811 13.9043C17.0399 14.9181 14.2977 17.5252 14.875 19.5529C15.4523 21.5806 19.2048 22.4496 23.1016 21.4357Z" fill="white" fill-opacity="0.2"/>
<path d="M13.5764 23.6083C11.7002 24.4774 10.6899 26.0705 11.1229 27.0844C11.5559 28.0982 13.4321 28.0982 15.3084 27.2292C17.1846 26.3602 18.1949 24.767 17.7619 23.7532C17.1846 22.7393 15.3084 22.5945 13.5764 23.6083Z" fill="white" fill-opacity="0.2"/>
<path d="M88.0484 41.2782C86.4608 42.7266 87.3267 46.3475 90.2132 49.389C92.9554 52.4305 96.5636 53.7341 98.1512 52.2857C99.7388 50.8374 98.8728 47.2165 95.9863 44.1749C93.2441 41.1334 89.6359 39.8299 88.0484 41.2782Z" fill="white" fill-opacity="0.2"/>
<path d="M39.4101 37.368C43.5955 37.2232 46.915 35.0506 46.7707 32.5884C46.6264 30.1262 43.3069 28.2434 39.1214 28.3882C34.9359 28.533 31.6164 30.7056 31.7608 33.1678C31.9051 35.63 35.2246 37.5128 39.4101 37.368Z" fill="white" fill-opacity="0.2"/>
<path d="M28.4418 38.6712C30.1737 38.6712 31.617 37.6574 31.617 36.6435C31.617 35.6297 30.1737 34.7607 28.2975 34.9055C26.5656 34.9055 25.1223 35.9193 25.1223 36.9332C25.2666 37.947 26.7099 38.8161 28.4418 38.6712Z" fill="white" fill-opacity="0.2"/>
<path d="M90.7906 38.2362C91.5123 37.512 90.935 35.6291 89.4917 34.1808C88.0484 32.7324 86.1722 32.1531 85.4506 33.0221C84.7289 33.7462 85.3062 35.6291 86.7495 37.0775C88.1928 38.5258 90.069 39.1052 90.7906 38.2362Z" fill="white" fill-opacity="0.2"/>
<path d="M-38.0929 55.3272C-37.5156 53.8788 -37.0826 52.4305 -36.361 50.9821C-35.2064 47.9406 -33.6188 44.899 -31.8869 41.8575C-30.1549 38.8159 -28.1344 35.7744 -25.9695 32.8777C-23.8046 29.981 -21.351 27.0842 -18.6088 24.4772C-16.011 21.8702 -13.1244 19.408 -10.2379 17.0906C-7.35137 14.9181 -4.32051 12.8904 -1.28966 11.1523C1.7412 9.41431 4.77206 7.96595 7.80291 6.66243C9.24617 5.93826 10.8338 5.50375 12.1327 4.92441C13.576 4.4899 15.0192 3.91056 16.3182 3.62089C19.0604 2.89671 21.5139 2.17253 23.8231 1.73803C24.9778 1.59319 25.988 1.30352 26.9983 1.15868C28.0086 1.01385 28.8746 0.869013 29.7405 0.724178C31.3281 0.434507 32.7714 0.434507 33.6373 0.289671C34.5033 0.144836 35.0806 0.144836 35.0806 0.144836C35.0806 0.144836 34.6476 0.144836 33.6373 0.144836C32.7714 0.144836 31.4725 0 29.7405 0C28.8746 0 28.0086 0 26.9983 0C25.988 0.144836 24.8334 0.144836 23.6788 0.289671C21.3696 0.579342 18.6274 0.869013 15.8852 1.44836C14.4419 1.73803 12.9987 2.17253 11.4111 2.4622C9.96781 2.89671 8.38021 3.33122 6.79263 3.91056C3.61744 4.92441 0.442261 6.37276 -2.87725 8.11079C-6.05243 9.84881 -9.37194 11.7317 -12.5471 14.049C-15.578 16.2216 -18.6088 18.8286 -21.351 21.5805C-24.0932 24.3324 -26.6911 27.3739 -29.0003 30.5603C-31.3096 33.7467 -33.1858 36.9331 -34.9177 40.2643C-36.5053 43.5955 -37.9486 46.7819 -39.1032 49.9683C-39.6805 51.5614 -40.1135 53.1546 -40.5465 54.603C-40.9794 56.1962 -41.2681 57.6445 -41.5567 59.0929C-42.134 61.9896 -42.567 64.5966 -42.7113 66.914C-42.8557 67.9279 -42.8557 69.0865 -43 70.1004C-43 71.1142 -43 72.1281 -43 72.8523C-43 74.5903 -42.8557 75.8938 -42.8557 76.7628C-42.8557 77.6318 -42.8557 78.2112 -42.8557 78.2112C-42.8557 78.2112 -42.8557 77.7767 -42.7113 76.9077C-42.567 76.0387 -42.567 74.7351 -42.2784 72.9971C-42.134 72.1281 -41.9897 71.2591 -41.8454 70.2452C-41.7011 69.2314 -41.4124 68.2175 -41.2681 67.0589C-40.8351 64.7415 -40.2578 62.2793 -39.3918 59.5274C-38.9589 58.079 -38.5259 56.7755 -38.0929 55.3272Z" fill="white" fill-opacity="0.2"/>
</svg>
