<svg width="36" height="52" viewBox="0 0 36 52" fill="none" xmlns="http://www.w3.org/2000/svg">
<path d="M10.5258 0.826111C-3.51466 0.826111 -14.9482 12.3 -14.9482 26.39C-14.9482 40.4799 -3.51466 51.9539 10.5258 51.9539C24.5662 51.9539 35.9998 40.4799 35.9998 26.39C36.0455 12.3 24.6119 0.826111 10.5258 0.826111ZM34.8564 28.3635C34.582 31.7598 33.5759 34.9266 32.1124 37.6344C30.6946 40.3423 28.7738 42.637 26.8072 44.427C24.7949 46.2169 22.6911 47.502 20.6788 48.374C18.7122 49.246 16.8828 49.7509 15.3736 50.0262C13.8644 50.3016 12.6296 50.3475 11.8063 50.3934C10.9831 50.3934 10.5258 50.3934 10.5258 50.3934C10.5258 50.3934 10.9831 50.3475 11.8063 50.3475C12.6296 50.2557 13.8186 50.1639 15.3279 49.7968C16.8371 49.4755 18.6208 48.8788 20.4959 47.9609C22.4167 47.043 24.429 45.7121 26.3498 43.9221C28.225 42.1322 30.0086 39.8833 31.3349 37.2214C32.6612 34.5594 33.5301 31.4844 33.8045 28.2717C34.0332 25.0131 33.6216 21.6627 32.4783 18.4959C31.655 16.1553 30.3745 13.9523 28.8652 11.9788C29.3226 13.5392 29.8257 15.6963 30.0086 18.1747C29.9629 18.1288 29.9171 18.0829 29.8714 18.037C29.597 17.8075 29.2768 17.7157 29.0939 17.7157C29.0024 17.7157 28.911 17.7616 28.8652 17.7616C28.8195 17.7616 28.7738 17.8075 28.7738 17.8075C28.7738 17.8075 28.8195 17.8075 28.8652 17.8075C28.911 17.8075 29.0024 17.8534 29.0482 17.8993C29.1854 17.9911 29.3683 18.1288 29.5513 18.3582C29.6885 18.5877 29.8257 18.909 29.8714 19.2303C29.8714 19.2762 29.8714 19.3221 29.8714 19.368V19.5056C29.8714 19.5974 29.8714 19.6892 29.8714 19.7351C29.8714 19.9187 29.8257 20.0564 29.7799 20.24C29.7342 20.3777 29.6427 20.5153 29.5513 20.6071C29.4598 20.6989 29.4141 20.7448 29.2311 20.7907C29.1854 20.7907 29.0024 20.7907 28.911 20.7448C28.7738 20.6989 28.6823 20.6071 28.5451 20.5153C28.3164 20.3318 28.1792 20.1023 28.0878 19.9646C27.9963 19.8269 27.9506 19.6892 27.9506 19.6892C27.9506 19.6892 27.9506 19.7351 27.9506 19.781C27.9506 19.8269 27.9506 19.9187 27.9506 20.0105C27.9506 20.1941 27.9963 20.5153 28.1792 20.7907C28.2707 20.9284 28.4079 21.112 28.5908 21.2497C28.7738 21.3874 29.0024 21.525 29.3226 21.525C29.5513 21.525 29.9171 21.4333 30.1001 21.2497L30.1458 21.2038C30.1001 22.6265 29.9171 24.1411 29.597 25.7015C29.9171 25.7015 30.1458 25.5639 30.3287 25.4262C30.5117 25.2885 30.6489 25.1508 30.7403 25.0131C30.8318 24.8754 30.9233 24.7836 30.969 24.7377C31.0148 24.6918 31.0605 24.646 31.0605 24.646C31.0605 24.646 31.0605 24.7377 31.0605 24.8295C31.0605 24.9672 31.0148 25.1508 30.9233 25.3344C30.8318 25.518 30.6489 25.7474 30.4202 25.931C30.1915 26.1146 29.9171 26.2064 29.597 26.2064C29.2768 26.2064 29.0024 26.1146 28.7738 25.931C28.5451 25.7474 28.4079 25.518 28.3164 25.3344C28.225 25.1508 28.1792 24.9213 28.1792 24.8295C28.1792 24.6918 28.1792 24.646 28.1792 24.646C28.1792 24.646 27.9963 24.7377 27.9506 25.1508C27.9506 25.3803 27.9506 25.6557 28.1792 26.0228C28.3622 26.3441 28.7738 26.7113 29.3683 26.803C29.2768 27.0784 29.2311 27.3538 29.1396 27.6292C28.7738 27.6292 28.4536 27.7669 28.225 28.0422C27.8134 28.5471 27.9048 29.3273 28.4079 29.7404C28.042 30.6583 27.5847 31.6221 27.0816 32.54C27.5389 32.5859 27.9048 32.4482 28.1792 32.3105C28.5451 32.1269 28.7738 31.8975 28.9567 31.7139C29.1396 31.5303 29.2311 31.3926 29.3226 31.3467C29.4141 31.2549 29.4598 31.2549 29.4598 31.2549C29.4598 31.2549 29.4141 31.3467 29.3683 31.5762C29.2768 31.7598 29.1396 32.0351 28.911 32.3105C28.6823 32.5859 28.3622 32.8154 27.9506 32.999C27.7676 33.0907 27.5389 33.1366 27.3103 33.1366C27.0816 33.1366 26.8529 33.1366 26.6243 33.0449C26.3956 32.999 26.1669 32.8613 25.984 32.7695C25.801 32.6318 25.6181 32.4941 25.4809 32.3105C25.2065 31.9434 25.0693 31.5762 25.0236 31.209C24.9778 30.8419 24.9778 30.5665 25.0236 30.3829C25.0693 30.1993 25.0693 30.0616 25.0693 30.0616C25.0693 30.0616 25.0236 30.0616 24.9778 30.1534C24.8864 30.2452 24.7949 30.3829 24.7034 30.7042C24.6577 30.9795 24.5662 31.4385 24.7949 31.9893C24.8864 32.2646 25.0693 32.5859 25.3437 32.8613C25.6181 33.1366 25.984 33.412 26.4871 33.5497C26.3041 33.871 26.0754 34.1922 25.8925 34.5135C25.7553 34.5135 25.6181 34.5135 25.4809 34.5135C24.7034 34.6512 24.2003 35.2937 24.2918 35.9363C24.2918 35.9822 24.3375 36.074 24.3375 36.1199C23.7887 35.9822 23.2857 35.4773 23.1484 34.6971C22.9198 33.3202 21.7307 30.4747 20.6331 29.8781C19.444 29.2355 18.4836 30.796 19.1238 31.3008C20.5873 32.4023 19.8556 34.5135 19.9928 36.3493C20.0385 37.0837 20.4044 37.6803 20.7245 38.2311C19.9928 38.4605 19.5354 39.149 19.6726 39.7915C19.7184 40.1587 19.947 40.4341 20.2672 40.6176C19.8098 40.9848 19.3982 41.3061 18.9409 41.6273C18.9409 41.5814 18.9409 41.5355 18.9409 41.4897C18.8952 40.893 18.7122 40.3882 18.4835 40.021C18.2549 39.6538 17.9805 39.3785 17.7518 39.2408C17.2487 38.8736 16.8828 38.8277 16.6999 38.8277C16.4712 38.8277 16.4255 38.8277 16.4255 38.8277C16.4255 38.8277 16.4712 38.8277 16.5627 38.8736C16.6542 38.9195 16.7914 38.9654 16.9743 39.0572C17.2945 39.2408 17.7975 39.6538 18.1177 40.2505C18.4378 40.8471 18.5293 41.7191 18.2091 42.5453C17.9347 43.3714 17.2487 44.1057 16.4255 44.5188C15.6023 44.9318 14.5961 44.9777 13.8186 44.6565C12.9954 44.3352 12.4009 43.6926 12.1722 43.0501C11.8978 42.4076 11.9435 41.8109 12.035 41.3979C12.0807 41.2143 12.1265 41.0307 12.1722 40.9389C12.2179 40.8471 12.2179 40.8012 12.2179 40.8012C12.2179 40.8012 12.1722 40.8471 12.035 41.0307C11.9435 41.2143 11.7149 41.5355 11.6691 42.1322C11.6234 42.4076 11.6234 42.7747 11.7606 43.2337C11.8521 43.6467 12.1265 44.1057 12.5381 44.5647C12.6296 44.6564 12.721 44.7482 12.8582 44.84C12.3552 45.0236 11.8521 45.1613 11.349 45.299C11.2118 44.9318 11.0289 44.7023 10.8459 44.5188C10.6172 44.2893 10.3886 44.1516 10.2056 44.0598C9.79403 43.8762 9.56536 43.8762 9.38242 43.8762C9.24522 43.8762 9.15375 43.9221 9.15375 43.9221C9.15375 43.9221 9.19948 43.9221 9.24522 43.968C9.33669 44.0139 9.42815 44.0598 9.56536 44.1057C9.83976 44.2434 10.1599 44.4729 10.48 44.84C10.6172 45.0236 10.7544 45.2531 10.8459 45.5285C10.9374 45.8038 10.8917 46.1251 10.8002 46.4005C10.5715 46.9971 9.93123 47.3643 9.29095 47.502C8.01039 47.7774 6.59263 47.1807 6.04381 46.3546C5.76941 45.9415 5.67794 45.5285 5.72367 45.2072C5.72367 45.0695 5.76941 44.9318 5.81514 44.8859C5.86088 44.7941 5.86088 44.7941 5.86088 44.7941C5.86088 44.7941 5.81514 44.7941 5.67794 44.9318C5.58647 45.0695 5.40353 45.299 5.40353 45.7579C5.40353 45.8497 5.40353 45.9874 5.44927 46.1251C5.12913 46.1251 4.80899 46.1251 4.53458 46.1251C4.58032 45.9874 4.58032 45.8038 4.53458 45.6662C4.39738 44.9318 3.57416 44.427 2.70521 44.6106C2.65947 44.6106 2.568 44.6565 2.52227 44.6565C2.52227 44.3352 2.61374 44.0139 2.79667 43.7844C3.61989 42.5911 5.99808 41.7191 6.08955 39.6538C6.13528 38.1393 -0.313258 38.6441 -0.313258 41.0766C-0.267524 43.4632 -1.36515 43.2796 -2.18836 44.6106C-2.32557 44.84 -2.46277 45.0236 -2.59997 45.1613C-3.19452 44.9777 -3.74333 44.84 -4.20068 44.6565C-4.15494 44.6106 -4.15494 44.5647 -4.10921 44.5188C-3.92627 44.1975 -4.06347 43.7385 -4.47508 43.5091C-4.84096 43.2796 -5.34403 43.3714 -5.52697 43.6926C-5.57271 43.7844 -5.57271 43.8303 -5.61844 43.9221C-10.2376 39.562 -13.1189 33.3661 -13.1189 26.4818C-13.1189 26.4818 -13.1189 26.0228 -13.1189 25.1967C-13.0731 24.3706 -13.0274 23.1314 -12.753 21.6168C-12.4786 20.1023 -11.9755 18.2665 -11.1066 16.2929C-10.2376 14.3194 -8.95705 12.1623 -7.17341 10.1888C-5.38977 8.16941 -3.14879 6.28769 -0.404727 4.86493C2.2936 3.39627 5.44927 2.38656 8.83361 2.11119C12.1722 1.83581 15.7395 2.20298 19.0781 3.44216C22.4167 4.63545 25.5266 6.60896 28.0878 9.17912C30.6031 11.7493 32.6155 14.8702 33.8045 18.2206C34.765 21.4333 35.1308 25.0131 34.8564 28.3635Z" fill="white" fill-opacity="0.2"/>
<path d="M16.9744 33.0449C16.7458 32.6777 16.4714 32.3565 16.1969 32.127C15.9225 31.8975 15.6024 31.7598 15.328 31.668C15.0536 31.5762 14.8249 31.5303 14.5962 31.4844C14.3676 31.4844 14.2304 31.4844 14.1389 31.4844C14.0474 31.4844 13.956 31.4844 13.956 31.4844C13.956 31.4844 14.0017 31.4844 14.1389 31.5303C14.2304 31.5303 14.4133 31.5762 14.5962 31.6221C14.7792 31.668 15.0079 31.7598 15.2365 31.8975C15.4652 32.0352 15.6939 32.2188 15.9225 32.4482C16.1512 32.6777 16.3341 32.9531 16.4714 33.2744C16.6086 33.5956 16.7 33.9628 16.7 34.33C16.7 34.4218 16.7 34.5136 16.7 34.6053C16.7 34.6971 16.7 34.8348 16.6543 34.9266C16.6086 35.1102 16.5628 35.2938 16.5171 35.4774C16.3799 35.8445 16.1512 36.1658 15.8768 36.4412C15.6024 36.7165 15.2823 36.946 14.9164 37.0837C14.5505 37.2214 14.1846 37.2673 13.773 37.2673C13.4072 37.2673 13.0413 37.1755 12.7211 37.0378C12.401 36.9001 12.1266 36.7165 11.8979 36.4871C11.6692 36.2576 11.4863 36.0281 11.3491 35.7986C11.2119 35.5691 11.1204 35.3397 11.0747 35.1561C11.029 34.9725 10.9832 34.8348 10.9832 34.6971C10.9832 34.6053 10.9375 34.5136 10.9375 34.5136C10.9375 34.5136 10.9375 34.5594 10.9375 34.6971C10.9375 34.7889 10.9375 34.9725 10.9375 35.1561C10.9832 35.3397 10.9832 35.615 11.1204 35.8904C11.2119 36.1658 11.3491 36.4412 11.5778 36.7624C12.0351 37.3591 12.7669 37.8639 13.773 37.9557C14.2304 38.0016 14.7334 37.9557 15.1908 37.7721C15.6481 37.5886 16.1055 37.3132 16.4714 36.9919C16.8372 36.6247 17.1116 36.1658 17.2488 35.7068C17.3403 35.4774 17.386 35.2479 17.4318 34.9725C17.4318 34.8348 17.4318 34.743 17.4318 34.6512C17.4318 34.5135 17.4318 34.4218 17.4318 34.2841C17.3403 33.8251 17.1574 33.4121 16.9744 33.0449Z" fill="white" fill-opacity="0.2"/>
<path d="M3.48282 31.5303C3.39135 30.8419 2.97974 30.3371 2.56813 30.0158C2.33946 29.8781 2.15652 29.7863 1.97359 29.6945C1.79065 29.6486 1.60771 29.6027 1.47051 29.6027C1.33331 29.6027 1.1961 29.6027 1.15037 29.6027C1.0589 29.6027 1.0589 29.6027 1.0589 29.6027C1.0589 29.6027 1.10463 29.6027 1.15037 29.6486C1.24184 29.6486 1.33331 29.6945 1.42477 29.7404C1.65345 29.8322 1.97359 30.0158 2.24799 30.3371C2.3852 30.4747 2.5224 30.6583 2.61387 30.8878C2.70534 31.1173 2.75107 31.3468 2.75107 31.5762C2.75107 31.6221 2.75107 31.7139 2.75107 31.7598C2.75107 31.8057 2.75107 31.8975 2.75107 31.9893C2.75107 32.0811 2.70534 32.2188 2.6596 32.3106C2.56813 32.54 2.43093 32.7695 2.29373 32.9072C2.11079 33.0908 1.92785 33.2285 1.69918 33.3203C1.47051 33.4121 1.24184 33.458 0.967431 33.458C0.738759 33.458 0.510088 33.4121 0.281416 33.3203C0.0527442 33.2285 -0.130192 33.1367 -0.267395 32.999C-0.404598 32.8613 -0.541802 32.7236 -0.633271 32.5859C-0.72474 32.4483 -0.816208 32.3106 -0.861943 32.1729C-0.907677 32.0352 -0.95341 31.9434 -0.95341 31.8975C-0.95341 31.8057 -0.999146 31.8057 -0.999146 31.8057C-0.999146 31.8057 -0.999146 31.8516 -0.999146 31.8975C-0.999146 31.9893 -0.999146 32.0811 -0.999146 32.2188C-0.999146 32.3565 -0.953411 32.54 -0.907676 32.7236C-0.861942 32.9072 -0.724739 33.1367 -0.587536 33.3203C-0.450333 33.5039 -0.221661 33.7333 0.00701046 33.871C0.281417 34.0087 0.555823 34.1464 0.921697 34.1923C1.24184 34.2382 1.60771 34.1923 1.92785 34.1005C2.24799 34.0087 2.56813 33.7792 2.84254 33.5039C3.11695 33.2285 3.29988 32.9072 3.39135 32.5859C3.43709 32.4024 3.48282 32.2188 3.48282 32.0352C3.48282 31.9434 3.48282 31.8975 3.48282 31.8057C3.52855 31.668 3.48282 31.6221 3.48282 31.5303Z" fill="white" fill-opacity="0.2"/>
<path d="M6.63847 25.9311C6.86714 25.977 7.14155 25.977 7.37022 25.8852C7.59889 25.7934 7.8733 25.6557 8.05623 25.4721C8.23917 25.2885 8.37638 25.0591 8.46784 24.7837C8.51358 24.646 8.51358 24.5542 8.51358 24.3706C8.51358 24.2788 8.51358 24.2788 8.51358 24.2329C8.51358 24.1412 8.51358 24.0953 8.51358 24.0494C8.42211 23.5445 8.1477 23.1773 7.82756 22.9938C7.50742 22.8102 7.23302 22.7643 7.05008 22.7643C6.86714 22.7643 6.77567 22.8102 6.77567 22.8102C6.77567 22.8102 6.82141 22.8102 6.86714 22.8561C6.91288 22.8561 7.00435 22.902 7.05008 22.9479C7.18728 23.0397 7.41595 23.1773 7.55316 23.3609C7.73609 23.5904 7.82756 23.8658 7.82756 24.1412C7.82756 24.187 7.82756 24.2329 7.82756 24.2329C7.82756 24.2788 7.82756 24.3247 7.82756 24.3706C7.82756 24.4165 7.78183 24.5083 7.78183 24.5542C7.73609 24.6919 7.64463 24.8296 7.55316 24.9214C7.46169 25.0132 7.32449 25.105 7.18728 25.1509C7.05008 25.1968 6.91288 25.2426 6.77567 25.2426C6.63847 25.2426 6.50127 25.2426 6.36407 25.1968C6.22686 25.1509 6.08966 25.105 5.99819 25.0132C5.76952 24.8755 5.63232 24.646 5.54085 24.5083C5.49511 24.4165 5.44938 24.3706 5.44938 24.3247C5.44938 24.2788 5.40364 24.2329 5.40364 24.2329C5.40364 24.2329 5.40364 24.2788 5.40364 24.3247C5.40364 24.3706 5.35791 24.4624 5.35791 24.5542C5.35791 24.7378 5.40364 25.0591 5.63232 25.3344C5.72378 25.4721 5.86099 25.6098 6.04393 25.7475C6.13539 25.8393 6.36406 25.9311 6.63847 25.9311Z" fill="white" fill-opacity="0.2"/>
<path d="M14.4591 8.2612C14.9164 8.2612 15.4195 8.2612 15.8768 8.16941C16.3342 8.07762 16.7915 7.93993 17.2489 7.71045C17.6147 7.52687 18.0264 7.15971 18.255 6.74665C18.3465 6.51717 18.438 6.28769 18.438 6.05821C18.438 5.82873 18.3922 5.64515 18.3008 5.46157C18.1636 5.0944 17.9349 4.81903 17.7062 4.63544C17.4775 4.45186 17.2946 4.31418 17.1117 4.22238C16.9287 4.13059 16.7915 4.0847 16.7001 4.0388C16.6086 3.99291 16.5629 3.99291 16.5629 3.99291C16.5629 3.99291 16.6086 4.0388 16.7001 4.0847C16.7915 4.13059 16.9287 4.26828 17.0659 4.36007C17.2031 4.49776 17.3861 4.68134 17.5233 4.86492C17.6605 5.0944 17.8434 5.32388 17.8892 5.59925C17.9349 5.87463 17.9349 6.1959 17.752 6.42538C17.569 6.70075 17.2946 6.88433 16.9287 7.06791C16.6086 7.2056 16.197 7.29739 15.7854 7.38918C15.3738 7.43508 14.9622 7.48098 14.5048 7.43508C14.0932 7.43508 13.6359 7.34329 13.2243 7.2515C12.8126 7.15971 12.401 7.02202 12.0352 6.88433C11.9437 6.83844 11.8522 6.79254 11.7608 6.74665C11.6693 6.70075 11.5778 6.65485 11.4863 6.60896C11.3034 6.51717 11.1662 6.42538 11.029 6.33358C10.7546 6.10411 10.5259 5.87463 10.343 5.59925C10.2058 5.32388 10.1143 5.04851 10.1601 4.81903C10.2058 4.58955 10.2973 4.36007 10.3887 4.22238C10.4802 4.0847 10.6174 3.94701 10.6631 3.85522C10.7546 3.76343 10.8003 3.76343 10.8003 3.76343C10.8003 3.76343 10.7546 3.80932 10.6631 3.85522C10.5717 3.90111 10.4345 3.99291 10.2973 4.13059C10.16 4.26828 9.97711 4.49776 9.88564 4.77313C9.79417 5.04851 9.79417 5.46157 9.97711 5.82873C10.1143 6.1959 10.3887 6.51717 10.6631 6.79254C10.8003 6.93023 10.9833 7.06791 11.1662 7.2056C11.2577 7.2515 11.3491 7.29739 11.4406 7.38918C11.5321 7.43508 11.6235 7.48098 11.7608 7.57277C12.1724 7.75635 12.584 7.93993 13.0413 8.07762C13.5444 8.16941 14.0017 8.2612 14.4591 8.2612Z" fill="white" fill-opacity="0.2"/>
<path d="M22.1424 20.2399C22.1424 20.1022 22.1882 19.9646 22.1882 19.8269C22.1882 19.6892 22.1882 19.5974 22.1882 19.4597C22.1882 19.322 22.1424 19.2302 22.1424 19.0925C21.9595 18.1287 21.4107 17.3944 20.8161 16.9813C20.5417 16.7519 20.2216 16.6142 19.9472 16.5224C19.6728 16.4306 19.4441 16.3847 19.2154 16.3388C18.9868 16.3388 18.8496 16.3388 18.7581 16.3388C18.6666 16.3388 18.5752 16.3388 18.5752 16.3388C18.5752 16.3388 18.6209 16.3388 18.7581 16.3847C18.8496 16.3847 19.0325 16.4765 19.2154 16.5224C19.3984 16.6142 19.627 16.706 19.8557 16.8437C20.0844 16.9813 20.3131 17.1649 20.5417 17.3944C20.9991 17.8534 21.3649 18.4959 21.4564 19.2761C21.4564 19.3679 21.4564 19.4597 21.4564 19.5515C21.4564 19.6433 21.4564 19.7351 21.4564 19.8728C21.4107 20.0564 21.4107 20.2399 21.3649 20.4235C21.2735 20.7907 21.0448 21.112 20.7704 21.3873C20.496 21.6627 20.1759 21.8463 19.81 21.984C19.627 22.0299 19.4441 22.0758 19.2612 22.0758H18.9868C18.8953 22.0758 18.7581 22.0758 18.6666 22.0758C18.3007 22.0299 17.9349 21.9381 17.6147 21.7545C17.2946 21.6168 17.0202 21.3873 16.7915 21.1578C16.5628 20.9284 16.3799 20.6989 16.2427 20.4694C16.1055 20.2399 16.014 20.0105 15.9226 19.8728C15.8768 19.6892 15.7854 19.5515 15.7854 19.4138C15.7396 19.322 15.7396 19.2761 15.7396 19.2761C15.7396 19.2761 15.7396 19.322 15.7396 19.4597C15.7396 19.5515 15.7396 19.7351 15.7396 19.9187C15.7854 20.1022 15.8311 20.3776 15.9226 20.653C16.014 20.9284 16.197 21.2037 16.4256 21.4791C16.6543 21.7545 16.9287 22.0299 17.2946 22.2593C17.6605 22.4888 18.0721 22.6724 18.5752 22.7642C18.6666 22.7642 18.8038 22.8101 18.8953 22.8101C19.0325 22.8101 19.124 22.8101 19.2612 22.8101C19.3984 22.8101 19.4898 22.8101 19.627 22.7642C19.7642 22.7183 19.8557 22.7183 19.9929 22.6724C20.496 22.5347 20.9533 22.2593 21.3192 21.8922C21.6851 21.525 21.9595 21.0661 22.0967 20.5612C22.0967 20.5153 22.0967 20.3776 22.1424 20.2399Z" fill="white" fill-opacity="0.2"/>
<path d="M19.0782 7.71051C19.1239 7.66461 19.1239 7.66461 19.1239 7.66461C19.1239 7.66461 19.1239 7.66461 19.0782 7.71051C18.9867 7.71051 18.8953 7.71051 18.8038 7.8023C18.7123 7.89409 18.6209 7.98588 18.5294 8.16946C18.4837 8.35305 18.4379 8.53663 18.4837 8.76611C18.5294 8.99559 18.6209 9.17917 18.7581 9.40865C18.8038 9.50044 18.8953 9.59223 18.9867 9.68402C19.0782 9.77581 19.1239 9.82171 19.2611 9.95939C19.627 10.2807 20.0844 10.556 20.6332 10.6937C20.9076 10.7396 21.182 10.7855 21.4564 10.7855C21.5936 10.7855 21.7308 10.7855 21.868 10.7396C21.9595 10.7396 22.0052 10.6937 22.0967 10.6937C22.1881 10.6478 22.2339 10.6478 22.2796 10.6019C22.554 10.4642 22.7827 10.2348 22.8742 9.95939C22.9656 9.68402 22.9199 9.40865 22.8284 9.22506C22.6455 8.812 22.4168 8.62842 22.2339 8.49073C22.1424 8.44484 22.0509 8.39894 22.0052 8.35305C21.9595 8.30715 21.9137 8.30715 21.9137 8.30715C21.9137 8.30715 21.9137 8.35305 21.9595 8.39894C22.0052 8.44484 22.0509 8.53663 22.0967 8.62842C22.1881 8.812 22.3253 9.08738 22.3711 9.36275C22.3711 9.50044 22.3711 9.63812 22.2796 9.77581C22.2339 9.8676 22.0967 9.95939 21.9595 10.0053C21.9137 10.0512 21.868 10.0512 21.8223 10.0512C21.7765 10.0512 21.7308 10.0512 21.6851 10.0512C21.5936 10.0512 21.5021 10.0512 21.4107 10.0512C21.2277 10.0512 20.9991 10.0053 20.8161 9.95939C20.6332 9.9135 20.4045 9.82171 20.2216 9.72992C20.0386 9.63812 19.8557 9.54633 19.6728 9.40865C19.627 9.36275 19.4898 9.27096 19.4441 9.22506C19.3984 9.17917 19.3069 9.08738 19.2611 9.04148C19.1239 8.90379 19.0325 8.76611 18.9867 8.62842C18.8495 8.35305 18.8495 8.12357 18.941 7.93999C18.9867 7.84819 19.0782 7.7564 19.0782 7.71051Z" fill="white" fill-opacity="0.2"/>
<path d="M9.15391 16.5225C9.51978 15.5128 10.5259 14.962 12.8584 14.6407C15.1908 14.3195 17.7977 15.7881 20.7247 15.2833C23.8804 14.7325 20.2674 13.9064 16.5171 12.759C12.8127 11.6116 12.584 12.8967 9.70272 12.5295C6.86719 12.1624 5.4037 12.8049 4.99209 14.5031C4.80915 15.3292 1.56201 14.0441 1.56201 15.6045C1.56201 16.4307 1.97362 17.3486 4.03166 18.2665C5.99824 19.1844 8.78804 17.5322 9.15391 16.5225Z" fill="white" fill-opacity="0.2"/>
<path d="M9.42831 37.0378C8.55935 37.1755 7.91907 37.9098 8.05627 38.69C8.19348 39.4243 9.0167 39.9292 9.88565 39.7456C10.7546 39.6079 11.3949 38.8736 11.2577 38.0934C11.1205 37.359 10.2973 36.9001 9.42831 37.0378Z" fill="white" fill-opacity="0.2"/>
<path d="M6.68425 36.8541C6.22691 36.9459 5.9525 37.3131 5.99824 37.6803C6.04397 38.0474 6.45558 38.2769 6.91292 38.231C7.37027 38.1392 7.64467 37.7721 7.59894 37.4049C7.50747 37.0377 7.09586 36.8083 6.68425 36.8541Z" fill="white" fill-opacity="0.2"/>
<path d="M8.69658 35.6609C8.3307 35.7068 8.10203 36.0281 8.14777 36.3493C8.1935 36.6706 8.55938 36.8542 8.87952 36.7624C9.24539 36.7165 9.47406 36.3952 9.42833 36.074C9.38259 35.7527 9.06245 35.5691 8.69658 35.6609Z" fill="white" fill-opacity="0.2"/>
<path d="M13.1327 15.9717C12.2637 15.2832 11.0289 15.3291 10.3886 16.1553C9.7026 16.9814 9.83981 18.2206 10.7088 18.909C11.5777 19.5974 12.8125 19.5515 13.4528 18.7254C14.1388 17.8993 14.0016 16.706 13.1327 15.9717Z" fill="white" fill-opacity="0.2"/>
<path d="M14.6879 15.9258C14.3677 16.2929 14.4135 16.8896 14.8251 17.2109C15.2367 17.5321 15.8312 17.4862 16.1514 17.1191C16.4715 16.7519 16.4258 16.1553 16.0142 15.834C15.6026 15.5127 15.008 15.5586 14.6879 15.9258Z" fill="white" fill-opacity="0.2"/>
<path d="M22.1424 26.0228C21.7308 26.39 21.6393 26.9866 21.9137 27.3538C22.2338 27.7209 22.7826 27.7209 23.24 27.3538C23.6516 26.9866 23.7431 26.39 23.4687 26.0228C23.1485 25.6556 22.554 25.6556 22.1424 26.0228Z" fill="white" fill-opacity="0.2"/>
<path d="M13.27 27.9046C13.7273 28.0423 14.139 27.8128 14.2762 27.4456C14.3676 27.0784 14.139 26.6654 13.6816 26.5736C13.2243 26.4359 12.8127 26.6654 12.6755 27.0325C12.5383 27.3997 12.8127 27.7669 13.27 27.9046Z" fill="white" fill-opacity="0.2"/>
<path d="M4.94634 6.79255C6.2269 6.47128 7.09586 5.64516 6.91292 5.00262C6.72998 4.36008 5.58662 4.0847 4.30606 4.40597C3.0255 4.72724 2.15655 5.55336 2.33949 6.1959C2.52242 6.83844 3.71152 7.11382 4.94634 6.79255Z" fill="white" fill-opacity="0.2"/>
<path d="M1.92802 7.48101C1.33347 7.75638 1.01333 8.26124 1.15054 8.58251C1.28774 8.90378 1.88229 8.90378 2.47683 8.6284C3.07138 8.35303 3.39152 7.84818 3.25431 7.52691C3.07138 7.20564 2.47683 7.15974 1.92802 7.48101Z" fill="white" fill-opacity="0.2"/>
<path d="M25.5267 13.0803C25.0236 13.5392 25.298 14.6866 26.2127 15.6504C27.0817 16.6142 28.225 17.0273 28.7281 16.5683C29.2312 16.1094 28.9568 14.962 28.0421 13.9982C27.1731 13.0344 26.0298 12.6213 25.5267 13.0803Z" fill="white" fill-opacity="0.2"/>
<path d="M10.1142 11.8411C11.4405 11.7952 12.4924 11.1067 12.4466 10.3265C12.4009 9.54627 11.349 8.94963 10.0227 8.99552C8.69644 9.04142 7.64455 9.72985 7.69028 10.5101C7.73601 11.2903 8.7879 11.8869 10.1142 11.8411Z" fill="white" fill-opacity="0.2"/>
<path d="M6.63856 12.2542C7.18737 12.2542 7.64472 11.9329 7.64472 11.6116C7.64472 11.2903 7.18737 11.015 6.59283 11.0609C6.04401 11.0609 5.58667 11.3821 5.58667 11.7034C5.6324 12.0247 6.08975 12.3001 6.63856 12.2542Z" fill="white" fill-opacity="0.2"/>
<path d="M26.3957 12.1165C26.6244 11.887 26.4415 11.2903 25.9841 10.8314C25.5268 10.3724 24.9322 10.1888 24.7035 10.4642C24.4749 10.6937 24.6578 11.2903 25.1152 11.7493C25.5725 12.2083 26.167 12.3918 26.3957 12.1165Z" fill="white" fill-opacity="0.2"/>
<path d="M-14.445 17.5321C-14.2621 17.0732 -14.1249 16.6142 -13.8962 16.1553C-13.5303 15.1915 -13.0273 14.2276 -12.4785 13.2638C-11.9296 12.3 -11.2894 11.3362 -10.6033 10.4183C-9.91733 9.5004 -9.13985 8.58249 -8.2709 7.75636C-7.44768 6.93024 -6.53299 6.15002 -5.61831 5.41569C-4.70362 4.72725 -3.7432 4.08471 -2.78278 3.53396C-1.82236 2.98322 -0.861938 2.52426 0.0984821 2.1112C0.555826 1.88172 1.0589 1.74403 1.47051 1.56045C1.92786 1.42277 2.3852 1.23918 2.79681 1.14739C3.66576 0.917913 4.44324 0.688435 5.17499 0.550748C5.54087 0.504852 5.86101 0.413061 6.18115 0.367165C6.50129 0.321269 6.77569 0.275374 7.0501 0.229478C7.55318 0.137687 8.01052 0.137687 8.28493 0.0917913C8.55933 0.0458957 8.74227 0.0458956 8.74227 0.0458956C8.74227 0.0458956 8.60507 0.0458956 8.28493 0.0458956C8.01052 0.0458956 7.59891 0 7.0501 0C6.77569 0 6.50129 0 6.18115 0C5.86101 0.0458956 5.49513 0.0458957 5.12926 0.0917913C4.39751 0.183583 3.52856 0.275374 2.65961 0.458956C2.20226 0.550748 1.74492 0.688435 1.24184 0.780226C0.784498 0.917913 0.28142 1.0556 -0.221658 1.23918C-1.22781 1.56045 -2.23397 2.01941 -3.28586 2.57016C-4.29201 3.1209 -5.3439 3.71755 -6.35006 4.45188C-7.31048 5.14031 -8.2709 5.96643 -9.13985 6.83845C-10.0088 7.71047 -10.832 8.67428 -11.5638 9.68398C-12.2955 10.6937 -12.8901 11.7034 -13.4389 12.759C-13.942 13.8146 -14.3993 14.8243 -14.7652 15.834C-14.9481 16.3389 -15.0853 16.8437 -15.2225 17.3027C-15.3597 17.8075 -15.4512 18.2665 -15.5427 18.7254C-15.7256 19.6433 -15.8628 20.4695 -15.9085 21.2038C-15.9543 21.5251 -15.9543 21.8922 -16 22.2135C-16 22.5348 -16 22.856 -16 23.0855C-16 23.6363 -15.9543 24.0493 -15.9543 24.3247C-15.9543 24.6001 -15.9543 24.7836 -15.9543 24.7836C-15.9543 24.7836 -15.9543 24.646 -15.9085 24.3706C-15.8628 24.0952 -15.8628 23.6822 -15.7713 23.1314C-15.7256 22.856 -15.6799 22.5807 -15.6341 22.2594C-15.5884 21.9381 -15.4969 21.6168 -15.4512 21.2497C-15.314 20.5154 -15.131 19.7351 -14.8566 18.8631C-14.7194 18.4042 -14.5822 17.9911 -14.445 17.5321Z" fill="white" fill-opacity="0.2"/>
</svg>
